<svg height="512" viewBox="0 0 64 64" width="512" xmlns="http://www.w3.org/2000/svg"><g id="Teacher-2" data-name="Teacher"><path d="m3 39h58v4h-58z" fill="#ff7956"/><path d="m5 3h54v36h-54z" fill="#5eac24"/><path d="m45 35h10v4h-10z" fill="#fee9ab"/><path d="m13 43h-4v-12a4 4 0 0 1 4-4h12a2.006 2.006 0 0 1 2 2h2.34l6.49-4.49 1.33 1.33 1.5 1.5-7.66 5.66h-6v10z" fill="#bdfdff"/><path d="m27 15v2h-2v-2l-4 2-8-2v2h-2v-2a4 4 0 0 1 4-4h8a4 4 0 0 1 4 4z" fill="#c0ab91"/><path d="m19 61h-6v-18h12v18z" fill="#fee9ab"/><path d="m25 17v4a6 6 0 0 1 -12 0v-6l8 2 4-2z" fill="#ffc477"/><path d="m61 38h-1v-35a1 1 0 0 0 -1-1h-54a1 1 0 0 0 -1 1v35h-1a1 1 0 0 0 -1 1v4a1 1 0 0 0 1 1h9v17a1 1 0 0 0 1 1h12a1 1 0 0 0 1-1v-17h35a1 1 0 0 0 1-1v-4a1 1 0 0 0 -1-1zm-55-34h52v34h-2v-3a1 1 0 0 0 -1-1h-10a1 1 0 0 0 -1 1v3h-18v-4h5a.993.993 0 0 0 .594-.2l7.657-5.657a1 1 0 0 0 .113-1.511l-.793-.793 11.136-11.132-1.414-1.414-11.136 11.136-.621-.621a1 1 0 0 0 -1.276-.116l-6.229 4.308h-1.2a3.006 3.006 0 0 0 -2.831-2h-1.11a6.977 6.977 0 0 0 2.11-5v-3h1a1 1 0 0 0 1-1v-2a5.006 5.006 0 0 0 -5-5h-8a5.006 5.006 0 0 0 -5 5v2a1 1 0 0 0 1 1h1v3a6.977 6.977 0 0 0 2.11 5h-1.11a5.006 5.006 0 0 0 -5 5v7h-2zm48 34h-8v-2h8zm-40 4v-9h-2v9h-2v-11a3 3 0 0 1 3-3h12a1 1 0 0 1 1 1 1 1 0 0 0 1 1h2.343a1 1 0 0 0 .569-.178l5.8-4.01 1.417 1.417-6.458 4.771h-5.671a1 1 0 0 0 -1 1v9zm0-21v-4.719l6.757 1.689a1.011 1.011 0 0 0 .69-.075l2.553-1.277v4.382a5 5 0 0 1 -10 0zm-1.615-6.788a1 1 0 0 0 -.385.788 3 3 0 0 1 3-3h8a3 3 0 0 1 3 3 1 1 0 0 0 -1.447-.895l-3.669 1.835-7.641-1.91a1 1 0 0 0 -.858.182zm-8.385 25.788h4v2h-4zm20 20h-4v-13h-2v13h-4v-16h10zm36-18h-34v-2h34z"/><path d="m18 30h2v2h-2z"/><path d="m18 34h2v2h-2z"/><path d="m18 38h2v2h-2z"/></g></svg>