<svg height="512" viewBox="0 0 64 64" width="512" xmlns="http://www.w3.org/2000/svg"><g id="Presentations"><path d="m61 39v4h-6-28l-.34.14-1.66-4.14h34z" fill="#c0ab91"/><path d="m61 3v4h-2-10-44-2v-4z" fill="#c0ab91"/><circle cx="55" cy="57" fill="#ff3051" r="2"/><path d="m5 7h54v32h-54z" fill="#bdfdff"/><path d="m13 35v4h-4v-12a4 4 0 0 1 4-4h12a2.006 2.006 0 0 1 2 2h2.34l6.49-4.49 1.33 1.33 1.5 1.5-7.66 5.66h-6v6z" fill="#fee9ab"/><path d="m26.66 43.14 2.34 5.86h-6-4-4-6l2.34-5.86 1.66-4.14h4 4 4z" fill="#ff7956"/><path d="m21 35h4v4h-4z" fill="#9cdd05"/><path d="m24 15v4a4 4 0 0 1 -4 4h-2a4 4 0 0 1 -4-4v-4l3 2z" fill="#ffc477"/><path d="m24 15-7 2-3-2a4 4 0 0 1 4-4h2a4 4 0 0 1 4 4z" fill="#c0ab91"/><path d="m23 49v10a2.006 2.006 0 0 1 -2 2h-2v-12z" fill="#ffc477"/><path d="m17 35h4v4h-4z" fill="#9cdd05"/><path d="m19 49v12h-2a2.006 2.006 0 0 1 -2-2v-10z" fill="#ffc477"/><path d="m13 35h4v4h-4z" fill="#9cdd05"/><circle cx="12" cy="15" fill="#c0ab91" r="2"/><path d="m13 39-1.66 4.14-.34-.14h-8v-4h2 4z" fill="#c0ab91"/><path d="m61 8a1 1 0 0 0 1-1v-4a1 1 0 0 0 -1-1h-58a1 1 0 0 0 -1 1v4a1 1 0 0 0 1 1h1v30h-1a1 1 0 0 0 -1 1v4a1 1 0 0 0 1 1h6.923l-1.852 4.628a1 1 0 0 0 .929 1.372h5v9a3 3 0 0 0 3 3h4a3 3 0 0 0 3-3v-9h5a1 1 0 0 0 .929-1.372l-1.852-4.628h25.923v10.184a3 3 0 1 0 2 0v-10.184h5a1 1 0 0 0 1-1v-4a1 1 0 0 0 -1-1h-1v-30zm-6 50a1 1 0 1 1 1-1 1 1 0 0 1 -1 1zm-51-54h56v2h-56zm0 38v-2h7.523l-.8 2zm11-23v-2.132l1.445.964a1 1 0 0 0 .555.168.981.981 0 0 0 .274-.039l5.726-1.635v2.674a3 3 0 0 1 -3 3h-2a3 3 0 0 1 -3-3zm.051-4.5a3 3 0 0 1 2.949-2.5h2a3 3 0 0 1 2.9 2.274l-5.73 1.638zm2.081 9.5-2.964 4.445 1.664 1.11 2.168-3.255v4.7h2v-4.7l2.168 3.252 1.664-1.11-2.964-4.442h4.132a1 1 0 0 1 1 1 1 1 0 0 0 1 1h2.343a1 1 0 0 0 .568-.178l5.8-4.01 1.418 1.417-6.458 4.771h-5.671a1 1 0 0 0 -1 1v5h-10v-5h-2v9h-2v-11a3 3 0 0 1 3-3zm-3.132 12h2v2h-2zm4 0h2v2h-2zm4 0h2v2h-2zm-6 23v-9h2v10h-1a1 1 0 0 1 -1-1zm6 0a1 1 0 0 1 -1 1h-1v-10h2zm-11.523-11 3.2-8h10.646l3.2 8zm49.523-6h-32.723l-.8-2h33.523zm-2-4h-32v-8h5a.993.993 0 0 0 .594-.2l7.657-5.657a1 1 0 0 0 .113-1.511l-.793-.793 7.843-7.839h7.586v-2h-5.586l1.293-1.293-1.414-1.414-2.707 2.707h-7.586v2h5.586l-6.429 6.429-.622-.621a1 1 0 0 0 -1.275-.116l-6.23 4.308h-1.2a3.006 3.006 0 0 0 -2.83-2h-1.026a4.948 4.948 0 0 0 1.026-3v-4a5.006 5.006 0 0 0 -5-5h-2a4.983 4.983 0 0 0 -4.315 2.52 3.011 3.011 0 1 0 -.685 5.3v1.18a4.948 4.948 0 0 0 1.026 3h-1.026a5.006 5.006 0 0 0 -5 5v11h-2v-30h52zm-45-23a1 1 0 1 1 -1-1 1 1 0 0 1 1 1z"/><path d="m32 12h4v2h-4z"/><path d="m48 18h6v2h-6z"/><path d="m42 26h12v2h-12z"/><path d="m38 32h16v2h-16z"/></g></svg>