<svg id="Layer_1" enable-background="new 0 0 128 128" height="512" viewBox="0 0 128 128" width="512" xmlns="http://www.w3.org/2000/svg"><g><path d="m122.171 115.039-5.802-10.037c-.292-.506-.674-.935-1.103-1.308 1.354-4.143 2.084-8.509 1.583-12.707 1.263-.31 2.206-1.443 2.206-2.8v-.864c0-1.594-1.297-2.891-2.891-2.891h-11.565l2.827-6.479.107.061c.405.231.847.342 1.283.342.898 0 1.773-.468 2.252-1.303l.36-.629c.709-1.239.279-2.825-.96-3.535l-8.926-5.111c-.601-.346-1.299-.436-1.966-.253-.668.182-1.225.612-1.568 1.212l-.361.63c-.709 1.239-.279 2.825.96 3.535l.107.061-8.341 11.469h-13.017c-2.643-4.483-6.413-8.221-10.921-10.826 3.719-.884 6.829-1.779 8.79-2.375 1.558-.476 2.456-2.134 2.003-3.697-1.045-3.614-3.475-12.438-3.475-16.328v-13.595c0-15.679-12.755-28.434-28.434-28.434s-28.433 12.756-28.433 28.434v13.595c0 4.778-2.388 12.978-3.414 16.281-.238.769-.163 1.583.213 2.292.377.712 1.01 1.232 1.782 1.468 1.95.593 5.04 1.481 8.737 2.36-8.998 5.2-15.071 14.921-15.071 26.04v20.173c0 1.654 1.346 3 3 3h99.893c1.049 0 2.024-.318 2.841-.856.452.293.939.536 1.475.679.446.119.898.179 1.348.179.899 0 1.787-.236 2.587-.699 2.476-1.431 3.326-4.609 1.894-7.084z" fill="#e6e7e8"/><g><g><path d="m11.759 66.29c2.293.698 6.432 1.877 11.326 2.94 3.688-1.693 7.787-2.645 12.111-2.645h12.249c4.324 0 8.423.951 12.111 2.645 4.931-1.071 9.096-2.261 11.378-2.956 1.045-.318 1.638-1.414 1.335-2.462-1.112-3.843-3.514-12.611-3.514-16.606v-13.595c0-15.151-12.282-27.433-27.433-27.433-15.151 0-27.433 12.282-27.433 27.433v13.594c0 4.852-2.325 12.928-3.459 16.579-.332 1.062.265 2.183 1.329 2.506z" fill="#fa759e"/><path d="m72.184 115.299v-1.151c0-1.392 1.129-2.521 2.521-2.521h.631c-4.954-8.091-8.625-17.458-7.226-25.549h-.441c-1.044 0-1.891-.847-1.891-1.891v-.863c0-1.044.847-1.891 1.891-1.891h5.127c-4.481-7.971-12.613-13.615-22.13-14.665-2.849 1.296-6.012 2.023-9.346 2.023-3.334 0-6.497-.728-9.346-2.023-14.534 1.604-25.84 13.919-25.84 28.88v20.172c0 1.105.895 2 2 2h66.373c.034 0 .066-.008.099-.01-1.346-.053-2.422-1.152-2.422-2.511z" fill="#d4fbff"/><g fill="#6dc9f7"><path d="m32.52 70.387-8.548 9.294c-.677.736-.706 1.858-.07 2.628l3.323 4.02c.674.816.596 2.016-.178 2.738l-3.236 3.015c-.613.571-.805 1.464-.481 2.236l9.19 21.931z"/><path d="m50.12 70.387 8.548 9.294c.677.736.706 1.858.07 2.628l-3.323 4.02c-.674.816-.596 2.016.178 2.738l3.236 3.015c.613.571.805 1.464.481 2.236l-9.19 21.931z"/></g><g><g><path d="m41.294 80.342c.019-.022.036-.045.055-.067-.019.022-.039.043-.058.065.001 0 .002.001.003.002z" fill="#6dc9f7"/></g></g><path d="m41.32 68.791c-3.121 0-6.095-.633-8.8-1.776v14.565c0 4.86 3.94 8.799 8.8 8.799 4.86 0 8.8-3.939 8.8-8.799v-14.565c-2.705 1.143-5.679 1.776-8.8 1.776z" fill="#fff"/><g><g fill="#fff"><path d="m65.258 41.086c-.473 0-.922.14-1.33.388v4.709c0 1.289-.114 2.552-.321 3.782.49.392 1.048.634 1.651.634 1.861 0 3.369-2.13 3.369-4.757s-1.508-4.756-3.369-4.756z"/><path d="m18.711 46.183v-4.709c-.408-.248-.857-.388-1.33-.388-1.861 0-3.369 2.13-3.369 4.757s1.508 4.757 3.369 4.757c.603 0 1.161-.242 1.651-.634-.207-1.232-.321-2.494-.321-3.783z"/></g><path d="m41.32 68.791c-12.486 0-22.608-10.122-22.608-22.608v-13.793s11.133 1.791 20.037-1.375 12.028-9.625 12.028-9.625 1.358 3.958 4.39 6.625 8.762 4.375 8.762 4.375v13.792c-.001 12.487-10.123 22.609-22.609 22.609z" fill="#fff"/><g><g fill="#ffd7e5"><ellipse cx="54.214" cy="48.839" rx="2.008" ry="1.266"/><ellipse cx="28.426" cy="48.558" rx="2.008" ry="1.266"/></g><path d="m41.32 59.99c-3.443 0-5.195-2.373-5.268-2.475-.323-.448-.222-1.073.226-1.396.446-.323 1.067-.223 1.392.22.059.079 1.268 1.65 3.65 1.65 2.373 0 3.647-1.646 3.66-1.663.333-.44.959-.528 1.401-.193.44.333.526.96.193 1.4-.076.102-1.899 2.457-5.254 2.457z" fill="#fa759e"/></g></g><path d="m50.119 80.275v1.305c0 4.86-3.94 8.8-8.8 8.8-4.86 0-8.8-3.94-8.8-8.8v36.241h17.601z" fill="#0089ef"/></g><g><g><path d="m99.071 81.433 3.884-8.902-6.777-3.881-9.297 12.783z" fill="#6dc9f7"/><path d="m104.03 73.147-8.926-5.112c-.762-.436-1.026-1.408-.589-2.17l.361-.63c.436-.762 1.408-1.026 2.17-.589l8.926 5.112c.762.436 1.026 1.408.589 2.17l-.361.63c-.437.761-1.408 1.025-2.17.589z" fill="#0089ef"/></g><g><g><path d="m96.433 109.449h9.342c.108-.191.216-.381.323-.573l-1.841-3.185c-1.157-2.001-.472-4.562 1.529-5.719 1.387-.802 3.032-.702 4.303.09 1.644-4.765 2.399-9.565 1.635-13.985-14.538 0-29.076 0-43.614 0-1.399 8.091 2.272 17.458 7.226 25.549h17.446c.712-1.291 2.071-2.177 3.651-2.177z" fill="#ffd7e5"/><path d="m71.11 86.078c-1 0-2 0-3 0-1.399 8.091 2.272 17.458 7.226 25.549h3c-4.955-8.091-8.625-17.458-7.226-25.549z" fill="#fff"/></g><g fill="#fa759e"><path d="m112.164 86.078h-44.495c-1.044 0-1.891-.847-1.891-1.891v-.863c0-1.044.847-1.891 1.891-1.891h44.495c1.044 0 1.891.847 1.891 1.891v.863c0 1.044-.846 1.891-1.891 1.891z"/><path d="m96.433 117.82c-2.312 0-4.186-1.874-4.186-4.186 0-.732.204-1.409.534-2.008h-18.076c-1.392 0-2.521 1.129-2.521 2.521v1.151c0 1.392 1.129 2.521 2.521 2.521h30.424.001-8.697z"/></g></g></g><g><g><path d="m117.306 111.539-5.802-10.038c-1.157-2.001-3.717-2.686-5.719-1.529-2.001 1.157-2.686 3.717-1.529 5.719l2.172 3.758h1.598c2.312 0 4.186 1.874 4.186 4.186 0 1.215-.526 2.3-1.353 3.064 1.312 1.207 3.292 1.498 4.917.559 2.002-1.157 2.687-3.717 1.53-5.719z" fill="#fa759e"/><path d="m117.306 111.539-2.897-5.011-5.291 3.083c1.779.483 3.094 2.092 3.094 4.024 0 1.215-.526 2.299-1.352 3.064 1.312 1.207 3.292 1.498 4.917.559 2.001-1.157 2.686-3.717 1.529-5.719z" fill="#0089ef"/></g><g><path d="m108.027 117.82h-11.594c-2.312 0-4.186-1.874-4.186-4.186 0-2.312 1.874-4.186 4.186-4.186h11.594c2.312 0 4.186 1.874 4.186 4.186-.001 2.312-1.875 4.186-4.186 4.186z" fill="#0089ef"/><path d="m108.027 109.449h-5.788l.029 8.371h5.759c2.312 0 4.186-1.874 4.186-4.186-.001-2.311-1.875-4.185-4.186-4.185z" fill="#fa759e"/><g fill="#3a2c60"><path d="m18.109 111.182c.552 0 1-.447 1-1v-5.75c0-.553-.448-1-1-1s-1 .447-1 1v5.75c0 .552.448 1 1 1z"/><path d="m31.346 40.758c-1.249 0-2.261 1.012-2.261 2.261s1.012 2.261 2.261 2.261 2.261-1.012 2.261-2.261c-.001-1.249-1.013-2.261-2.261-2.261z"/><path d="m51.294 40.758c-1.249 0-2.261 1.012-2.261 2.261s1.012 2.261 2.261 2.261 2.261-1.012 2.261-2.261-1.012-2.261-2.261-2.261z"/><path d="m43.891 48.003c-.552 0-1 .447-1 1v1.507c0 .866-.705 1.571-1.571 1.571s-1.571-.705-1.571-1.571v-1.507c0-.553-.448-1-1-1s-1 .447-1 1v1.507c0 1.969 1.602 3.571 3.571 3.571s3.571-1.603 3.571-3.571v-1.507c0-.553-.448-1-1-1z"/><path d="m49.574 38.64 4.427.771c.058.01.116.015.173.015.477 0 .899-.343.984-.828.095-.544-.27-1.063-.813-1.157l-4.427-.771c-.544-.086-1.062.271-1.157.813-.095.543.269 1.062.813 1.157z"/><path d="m32.722 36.669-4.427.771c-.544.095-.908.613-.813 1.157.085.485.507.828.984.828.057 0 .115-.005.173-.015l4.427-.771c.544-.095.908-.613.813-1.157-.094-.543-.608-.899-1.157-.813z"/><path d="m28.425 28.182c.026 0 .053-.001.079-.003.093-.008 2.31-.187 5.34-.929.537-.132.865-.673.733-1.21-.132-.536-.678-.864-1.209-.733-2.862.701-5 .876-5.021.878-.55.044-.961.525-.918 1.075.042.524.48.922.996.922z"/><path d="m93.202 102.039 3.224-3.859c.195-.228.293-.478.293-.749 0-.315-.122-.589-.367-.822-.244-.233-.518-.35-.822-.35-.325 0-.608.142-.846.424l-2.948 3.599-1.758-2.123c.469-.157.874-.385 1.212-.692.694-.63 1.042-1.509 1.042-2.638s-.348-2.008-1.042-2.638c-.695-.629-1.666-.944-2.915-.944h-4.087c-.38 0-.673.104-.879.309-.206.207-.31.5-.31.879v9.118c0 .391.114.7.342.928s.537.342.928.342.7-.114.928-.342.342-.537.342-.928v-3.143h1.682l3.032 3.629-3.338 3.973c-.195.228-.293.478-.293.749 0 .315.122.589.366.822.244.234.518.35.823.35.315 0 .592-.136.831-.407l3.093-3.745 3.062 3.745c.228.271.505.407.83.407.315 0 .595-.117.839-.35s.366-.507.366-.822c0-.261-.103-.51-.31-.749zm-5.252-5.551h-2.41v-3.305h2.41c1.27 0 1.906.554 1.906 1.661-.001 1.096-.636 1.644-1.906 1.644z"/><path d="m118.171 111.039-5.802-10.037c-.295-.511-.681-.945-1.115-1.319 1.353-4.14 2.092-8.498 1.592-12.694 1.265-.309 2.209-1.443 2.209-2.801v-.864c0-1.594-1.297-2.891-2.891-2.891h-11.565l2.827-6.48.107.061c.397.229.837.345 1.283.345.228 0 .457-.03.683-.092.668-.182 1.225-.612 1.568-1.212l.361-.63c.709-1.239.279-2.825-.96-3.535l-8.926-5.111c-.6-.346-1.299-.435-1.966-.253-.668.182-1.225.612-1.568 1.212l-.361.63c-.709 1.239-.279 2.825.96 3.535l.107.061-8.341 11.469h-13.024c-2.645-4.486-6.419-8.223-10.933-10.824 3.724-.885 6.847-1.78 8.809-2.377 1.558-.476 2.456-2.134 2.003-3.697-1.045-3.614-3.475-12.438-3.475-16.328v-13.596c0-15.679-12.755-28.434-28.434-28.434s-28.433 12.756-28.433 28.434v13.595c0 4.778-2.388 12.978-3.414 16.281-.238.769-.163 1.583.213 2.292.377.712 1.01 1.232 1.782 1.468 1.949.593 5.045 1.479 8.74 2.358-9 5.198-15.074 14.922-15.074 26.042v20.173c0 1.654 1.346 3 3 3h99.893c1.05 0 2.024-.318 2.841-.856.448.298.938.536 1.474.68.446.119.898.179 1.348.179.899 0 1.787-.236 2.587-.699 2.477-1.432 3.327-4.61 1.895-7.085zm-5.126-4.873-4.081 2.378c-.305-.056-.616-.095-.937-.095h-1.022l-1.883-3.258c-.879-1.521-.357-3.474 1.164-4.354.491-.283 1.037-.429 1.589-.429.276 0 .554.036.828.109.822.22 1.509.747 1.935 1.483zm-3.826-7.579c-1.339-.358-2.736-.174-3.935.521-2.475 1.431-3.325 4.609-1.894 7.084l1.305 2.258h-8.263c-1.736 0-3.266.865-4.208 2.178h-16.321c-3.845-6.383-7.954-15.404-6.914-23.549h41.856c.484 3.798-.149 7.783-1.359 11.608-.091-.03-.174-.075-.267-.1zm-12.786 18.233c-1.756 0-3.186-1.429-3.186-3.186s1.429-3.186 3.186-3.186h4.809l.022 6.371h-4.831zm-29.563-29.868c.038.011.075.026.114.035-.991 8.293 2.862 17.253 6.691 23.811-1.437.444-2.491 1.769-2.491 3.35v1.15c0 .547.136 1.059.36 1.521h-6.014v-23.904c0-2.109.473-4.135 1.34-5.963zm7.835 29.868c-.839 0-1.521-.683-1.521-1.521v-1.15c0-.839.682-1.521 1.521-1.521h16.644c-.065.326-.102.663-.102 1.008 0 1.207.431 2.304 1.125 3.186h-17.667zm38.35-33.497v.864c0 .491-.4.891-.891.891h-44.495c-.491 0-.891-.399-.891-.891v-.864c0-.491.4-.891.891-.891h44.495c.491.001.891.4.891.891zm-17.673-16.962.361-.63c.078-.137.205-.234.357-.275.051-.015.104-.021.155-.021.102 0 .202.026.292.079l8.926 5.111c.282.162.38.523.219.806l-.361.63c-.078.137-.205.234-.357.275-.153.043-.311.021-.448-.057v-.001l-8.926-5.111c-.282-.162-.38-.523-.218-.806zm1.077 3.602 2.61 1.495 2.61 1.495-3.263 7.479h-9.572zm-25.912 9.795c-.324.219-.647.436-.951.675h-1.927c-1.594 0-2.891 1.297-2.891 2.891v.864c0 .573.173 1.104.461 1.554-1.104 2.182-1.709 4.624-1.709 7.173v23.905h-12.41v-.371l9.113-21.745c.483-1.153.193-2.501-.722-3.354l-3.236-3.015c-.387-.36-.426-.962-.089-1.369l3.322-4.02c.951-1.15.906-2.845-.104-3.942l-8.284-9.007v-2.141c8.042 1.058 15.021 5.518 19.427 11.902zm-39.027 31.516-7.268-17.344c-.161-.385-.064-.834.241-1.118l3.236-3.015c1.161-1.081 1.278-2.885.268-4.105l-3.323-4.021c-.317-.383-.302-.947.035-1.313l6.813-7.406v38.322zm19.1-87.735c.735 1.476 2.002 3.57 3.886 5.227 2.541 2.235 6.746 3.792 8.422 4.354v13.063c0 11.915-9.693 21.608-21.608 21.608s-21.608-9.693-21.608-21.608v-12.649c3.128.373 11.923 1.073 19.372-1.577 6.412-2.28 9.942-6.178 11.536-8.418zm-17.1 58.04v-13.106s-.01-.013-.013-.016c2.447.861 5.075 1.334 7.812 1.334 2.732 0 5.354-.472 7.797-1.329l.003.011v13.106.001c0 4.3-3.499 7.799-7.8 7.799s-7.799-3.499-7.799-7.8zm17.6-8.628 6.813 7.406c.336.366.352.931.034 1.314l-3.322 4.02c-1.011 1.222-.894 3.025.267 4.106l3.235 3.015c.306.284.402.734.241 1.118l-7.268 17.344zm20.187-8.861c0 .001 0 .001 0 0 .15.52-.148 1.07-.666 1.228-.6.183-1.321.396-2.124.626l-1.071-3.721c-.152-.53-.707-.836-1.237-.685-.531.152-.837.707-.685 1.237l1.066 3.706c-2.001.544-4.371 1.144-6.962 1.713-1.88-.837-3.858-1.49-5.917-1.929 5.283-3.272 9.181-8.569 10.612-14.799.3.084.611.132.933.132 1.065 0 2.029-.479 2.779-1.283.641 4.298 2.231 10.174 3.272 13.775zm-6.379-21.962c.108-.025.218-.042.33-.042 1.284 0 2.369 1.72 2.369 3.756s-1.085 3.757-2.369 3.757c-.195 0-.382-.054-.563-.131.15-1.074.234-2.17.234-3.285v-4.055zm2.825-8.517v7.48c-.703-.635-1.56-1.006-2.496-1.006-.112 0-.22.022-.33.032v-7.728c0-.442-.291-.832-.714-.958-.055-.017-5.559-1.681-8.388-4.169-2.492-2.192-3.796-5.384-4.054-6.062v-11.863c9.393 4.059 15.982 13.411 15.982 24.274zm-26.433-26.433c2.956 0 5.797.495 8.453 1.394v6.023c-.746 1.035-3.957 5.216-8.93 7.917-.808.438-1.676.848-2.579 1.219-.511.209-.755.793-.546 1.304.159.388.532.621.926.621.126 0 .255-.023.379-.075.969-.397 1.902-.838 2.773-1.311 3.621-1.965 6.331-4.599 7.976-6.474v3.352c-.568 1.025-3.752 6.22-11.359 8.925-8.552 3.041-19.435 1.348-19.543 1.331-.289-.05-.584.037-.807.227-.223.189-.352.468-.352.761v7.728c-.11-.011-.218-.033-.33-.033-.935 0-1.792.37-2.495 1.005v-7.48c0-14.576 11.858-26.434 26.434-26.434zm-23.375 42.29c-.182.077-.369.131-.564.131-1.284 0-2.369-1.721-2.369-3.757s1.085-3.756 2.369-3.756c.112 0 .222.017.33.042v4.055c0 1.115.084 2.211.234 3.285zm3.577 18.39.635-2.409c.141-.534-.178-1.081-.712-1.222-.535-.141-1.081.179-1.222.712l-.647 2.455c-.75-.185-1.479-.368-2.165-.548l1.875-7.117c.141-.534-.178-1.081-.712-1.222-.538-.143-1.081.179-1.222.712l-1.873 7.106c-1.353-.374-2.523-.717-3.431-.993-.259-.078-.471-.253-.597-.49-.125-.235-.15-.506-.07-.762 1.052-3.385 2.674-9.081 3.271-13.716.743.773 1.686 1.233 2.728 1.233.322 0 .634-.047.934-.132 1.429 6.224 5.321 11.515 10.596 14.788-2.062.44-4.045 1.094-5.928 1.934-.496-.107-.979-.218-1.46-.329zm-14.389 47.962v-20.173c0-5.188 1.416-10.05 3.88-14.222 3.824 2.588 6.096 6.84 6.096 11.49v7.767c0 .553.448 1 1 1s1-.447 1-1v-7.767c0-5.335-2.614-10.212-7.013-13.17 4.408-6.379 11.383-10.852 19.424-11.909v2.161l-8.284 9.007c-1.01 1.098-1.055 2.792-.104 3.941l3.323 4.021c.337.406.297 1.008-.089 1.368l-3.236 3.015c-.916.853-1.206 2.2-.722 3.354l9.113 21.745v.371h-12.412v-3.056c0-.553-.448-1-1-1s-1 .447-1 1v3.056h-8.976c-.551.001-1-.447-1-.999zm26.387.428v-28.76c1.791 2.358 4.616 3.891 7.8 3.891s6.009-1.532 7.8-3.891v28.76.572h-15.6zm69.744.572-.022-6.371h4.785c1.757 0 3.186 1.429 3.186 3.186s-1.429 3.186-3.186 3.186h-4.763zm12.012-.427c-.736.424-1.596.539-2.417.319-.183-.049-.348-.133-.515-.213.547-.822.869-1.805.869-2.864 0-1.661-.799-3.126-2.018-4.075l2.852-1.662 2.394 4.141c.878 1.522.356 3.474-1.165 4.354z"/></g></g></g></g></g></svg>