<svg id="Layer_1" enable-background="new 0 0 128 128" height="512" viewBox="0 0 128 128" width="512" xmlns="http://www.w3.org/2000/svg"><g><path d="m122.171 115.888-5.802-10.037c-.292-.506-.674-.935-1.103-1.308 1.354-4.143 2.084-8.509 1.583-12.707 1.263-.31 2.206-1.443 2.206-2.8v-.864c0-1.594-1.297-2.891-2.891-2.891h-11.565l2.827-6.479.107.061c.405.231.847.342 1.283.342.898 0 1.773-.468 2.252-1.303l.36-.629c.709-1.239.279-2.825-.96-3.535l-8.926-5.111c-.6-.346-1.299-.436-1.966-.253-.668.182-1.225.612-1.568 1.212l-.361.63c-.709 1.239-.279 2.825.96 3.535l.107.061-8.341 11.469h-13.017c-4.558-7.733-12.474-13.256-21.732-14.55 6.334-3.086 11.086-8.925 12.7-15.95.3.083.612.129.934.129 2.45 0 4.369-2.528 4.369-5.757 0-2.75-1.395-4.986-3.322-5.59v-18.011c0-4.041-2.813-7.417-6.586-8.297.51-.504.968-1.104 1.289-1.823 1.813-4.063-1.844-7.103-2.661-7.103-.745 0-.484 1.353-3.214 3.165-2.739 1.818-5.25 2.027-5.25 2.027s-7.563-5.193-15.98-3.777c-6.04 1.017-10.563 5.583-12.645 8.088-2.906 1.359-4.923 4.301-4.923 7.72v18.012c-1.927.604-3.322 2.84-3.322 5.59 0 3.229 1.919 5.757 4.369 5.757.322 0 .634-.046.934-.129 1.614 7.024 6.365 12.864 12.699 15.95-14.604 2.041-25.882 14.607-25.882 29.764v20.173c0 1.654 1.346 3 3 3h99.893c1.049 0 2.024-.318 2.841-.856.452.293.939.536 1.475.679.446.119.898.179 1.348.179.899 0 1.787-.236 2.587-.699 2.476-1.431 3.326-4.61 1.894-7.084z" fill="#e6e7e8"/><g><g><g><g><path d="m74.705 112.475h.631c-4.954-8.091-8.625-17.458-7.226-25.549h-.441c-1.044 0-1.891-.847-1.891-1.891v-.863c0-1.044.847-1.891 1.891-1.891h5.121c-4.821-8.577-13.867-14.446-24.317-14.812l-7.154 4.554-7.161-4.563c-15.568.548-28.025 13.333-28.025 29.037v20.172c0 1.105.895 2 2 2h66.373c.034 0 .066-.008.1-.01-1.346-.053-2.422-1.153-2.422-2.511v-1.151c0-1.393 1.128-2.522 2.521-2.522z" fill="#d4fbff"/></g><g><path d="m41.32 72.024-6.785-4.324v50.84l-.005-.016v.145h13.58l-.006-50.964z" fill="#0089ef"/></g></g><path d="m41.32 68.104c-3.031 0-5.921-.601-8.563-1.683v.147l8.563 5.456 8.571-5.456v-.15c-2.644 1.083-5.537 1.686-8.571 1.686z" fill="#fff"/><g fill="#fff"><g><path d="m65.258 40.398c-.49 0-.953.155-1.373.421.017.416.043.831.043 1.248v3.429c0 1.289-.114 2.552-.321 3.782.49.392 1.048.634 1.651.634 1.861 0 3.369-2.13 3.369-4.757s-1.508-4.757-3.369-4.757z"/><path d="m18.712 45.495v-3.429c0-.417.026-.832.043-1.248-.42-.266-.883-.421-1.373-.421-1.861 0-3.369 2.13-3.369 4.757s1.508 4.757 3.369 4.757c.603 0 1.161-.242 1.651-.634-.208-1.23-.321-2.492-.321-3.782z"/></g><path d="m59.472 26.171c-1.384-2.274-3.302-4.11-5.535-5.394-1.867 1.519-6.803 2.607-12.617 2.607s-10.75-1.088-12.617-2.607c-2.234 1.284-4.152 3.12-5.535 5.394-2.914 4.79-4.456 10.288-4.456 15.895v3.429c0 12.486 10.122 22.608 22.608 22.608s22.608-10.122 22.608-22.608v-3.429c0-5.607-1.541-11.105-4.456-15.895z"/></g><g fill="#6dc9f7"><path d="m34.535 67.68v50.86l-8.19-26.93c-.32-.78-.13-1.67.49-2.24l2.23-3.01c.78-.73.85-1.93.18-2.74l-2.32-4.02c-.64-.77-.61-1.89.07-2.63l7.53-9.28z"/><path d="m56.295 91.61-8.19 26.93v-50.86l.01.01 7.54 9.28c.67.74.7 1.86.07 2.63l-2.33 4.02c-.67.81-.59 2.01.18 2.74l2.24 3.01c.61.57.8 1.46.48 2.24z"/></g><g fill="#6dc9f7"><path d="m34.535 67.68v.02l-.01-.01z"/><path d="m48.115 67.69-.01.01v-.02z"/></g><g fill="#fa759e"><path d="m41.32 72.022-3.717 3.992 1.8 5.071h3.834l1.8-5.071z"/><path d="m44.455 118.668h-6.271l1.219-37.583h3.834z"/></g></g><g><g><path d="m99.071 82.281 3.884-8.901-6.777-3.882-9.297 12.783z" fill="#6dc9f7"/><path d="m104.03 73.995-8.926-5.112c-.762-.436-1.026-1.408-.589-2.17l.361-.63c.436-.762 1.408-1.026 2.17-.589l8.926 5.112c.762.436 1.026 1.408.589 2.17l-.361.63c-.437.762-1.408 1.026-2.17.589z" fill="#0089ef"/></g><g><g><path d="m96.433 110.298h9.342c.108-.191.216-.381.323-.573l-1.841-3.185c-1.157-2.001-.472-4.562 1.529-5.719 1.387-.802 3.032-.702 4.303.09 1.644-4.765 2.399-9.565 1.635-13.985-14.538 0-29.076 0-43.614 0-1.399 8.091 2.272 17.458 7.226 25.549h17.446c.712-1.292 2.071-2.177 3.651-2.177z" fill="#ffd7e5"/><path d="m71.11 86.927c-1 0-2 0-3 0-1.399 8.091 2.272 17.458 7.226 25.549h3c-4.955-8.091-8.625-17.459-7.226-25.549z" fill="#fff"/></g><g fill="#fa759e"><path d="m112.164 86.927h-44.495c-1.044 0-1.891-.847-1.891-1.891v-.863c0-1.044.847-1.891 1.891-1.891h44.495c1.044 0 1.891.847 1.891 1.891v.863c0 1.044-.846 1.891-1.891 1.891z"/><path d="m96.433 118.669c-2.312 0-4.186-1.874-4.186-4.186 0-.732.204-1.409.534-2.008h-18.076c-1.392 0-2.521 1.129-2.521 2.521v1.151c0 1.392 1.129 2.521 2.521 2.521h30.424.001-8.697z"/></g></g></g><g><g><path d="m117.306 112.388-5.802-10.038c-1.157-2.001-3.717-2.686-5.719-1.529-2.001 1.157-2.686 3.717-1.529 5.719l2.172 3.758h1.598c2.312 0 4.186 1.874 4.186 4.186 0 1.215-.526 2.299-1.353 3.064 1.312 1.207 3.292 1.498 4.917.559 2.002-1.157 2.687-3.718 1.53-5.719z" fill="#fa759e"/><path d="m117.306 112.388-2.897-5.011-5.291 3.083c1.779.483 3.094 2.092 3.094 4.024 0 1.215-.526 2.299-1.352 3.064 1.312 1.207 3.292 1.498 4.917.559 2.001-1.158 2.686-3.718 1.529-5.719z" fill="#0089ef"/></g><g><path d="m108.027 118.669h-11.594c-2.312 0-4.186-1.874-4.186-4.186 0-2.312 1.874-4.186 4.186-4.186h11.594c2.312 0 4.186 1.874 4.186 4.186-.001 2.312-1.875 4.186-4.186 4.186z" fill="#0089ef"/><path d="m108.027 110.298h-5.788l.029 8.371h5.759c2.312 0 4.186-1.874 4.186-4.186-.001-2.311-1.875-4.185-4.186-4.185z" fill="#fa759e"/><g fill="#3a2c60"><path d="m23.109 111.28c.552 0 1-.447 1-1v-6.125c0-.553-.448-1-1-1s-1 .447-1 1v6.125c0 .553.448 1 1 1z"/><path d="m31.346 40.07c-1.249 0-2.261 1.012-2.261 2.261s1.012 2.261 2.261 2.261 2.261-1.012 2.261-2.261c-.001-1.249-1.013-2.261-2.261-2.261z"/><path d="m51.294 40.07c-1.249 0-2.261 1.012-2.261 2.261s1.012 2.261 2.261 2.261 2.261-1.012 2.261-2.261-1.012-2.261-2.261-2.261z"/><path d="m41.32 53.394c1.969 0 3.571-1.603 3.571-3.571v-1.507c0-.553-.448-1-1-1s-1 .447-1 1v1.507c0 .866-.705 1.571-1.571 1.571s-1.571-.705-1.571-1.571v-1.507c0-.553-.448-1-1-1s-1 .447-1 1v1.507c0 1.968 1.602 3.571 3.571 3.571z"/><path d="m49.574 37.952 4.427.771c.058.01.116.015.173.015.477 0 .899-.343.984-.828.095-.544-.27-1.063-.813-1.157l-4.427-.771c-.546-.092-1.062.271-1.157.813-.095.544.269 1.062.813 1.157z"/><path d="m32.722 35.981-4.427.771c-.544.095-.908.613-.813 1.157.085.485.507.828.984.828.057 0 .115-.005.173-.015l4.427-.771c.544-.095.908-.613.813-1.157-.094-.541-.606-.904-1.157-.813z"/><path d="m47.126 56.592c.333-.439.247-1.067-.193-1.4-.442-.335-1.069-.247-1.401.193-.015.019-1.485 1.918-4.212 1.918-2.748 0-4.137-1.817-4.202-1.904-.325-.443-.947-.544-1.393-.221-.448.322-.549.947-.226 1.396.081.111 2.013 2.729 5.82 2.729 3.711 0 5.724-2.6 5.807-2.711z"/><path d="m93.202 102.887 3.224-3.859c.195-.228.293-.478.293-.749 0-.315-.122-.589-.367-.822-.244-.233-.518-.35-.822-.35-.325 0-.608.142-.846.424l-2.948 3.599-1.758-2.123c.469-.157.874-.385 1.212-.692.694-.63 1.042-1.509 1.042-2.638s-.348-2.008-1.042-2.638c-.695-.629-1.666-.944-2.915-.944h-4.087c-.38 0-.673.104-.879.309-.206.207-.31.5-.31.879v9.118c0 .391.114.7.342.928.228.229.537.343.928.343s.7-.114.928-.343c.228-.228.342-.537.342-.928v-3.143h1.682l3.032 3.63-3.338 3.973c-.195.228-.293.478-.293.749 0 .315.122.589.366.822.244.234.518.35.823.35.315 0 .592-.136.831-.407l3.093-3.745 3.062 3.745c.228.271.505.407.83.407.315 0 .595-.117.839-.35s.366-.507.366-.822c0-.261-.103-.511-.31-.749zm-5.252-5.551h-2.41v-3.305h2.41c1.27 0 1.906.554 1.906 1.661-.001 1.097-.636 1.644-1.906 1.644z"/><path d="m118.171 111.888-5.802-10.037c-.295-.511-.681-.945-1.115-1.319 1.353-4.14 2.092-8.498 1.592-12.694 1.265-.309 2.209-1.443 2.209-2.801v-.864c0-1.594-1.297-2.891-2.891-2.891h-11.565l2.827-6.48.107.061c.397.229.837.345 1.283.345.228 0 .457-.03.683-.092.668-.182 1.225-.612 1.568-1.212l.361-.63c.709-1.239.279-2.825-.96-3.535l-8.926-5.111c-.6-.345-1.299-.436-1.966-.253-.668.182-1.225.612-1.568 1.212l-.361.63c-.709 1.239-.279 2.825.96 3.535l.107.061-8.341 11.469h-13.028c-4.558-7.729-12.462-13.258-21.715-14.553 6.332-3.087 11.081-8.926 12.694-15.949.3.084.611.132.933.132 2.45 0 4.369-2.528 4.369-5.757 0-2.75-1.395-4.986-3.322-5.589v-18.014c0-4.041-2.813-7.417-6.586-8.297.51-.504.968-1.104 1.289-1.823 1.813-4.063-1.844-7.103-2.661-7.103-.745 0-.484 1.353-3.214 3.165-2.739 1.818-5.25 2.027-5.25 2.027s-7.562-5.193-15.979-3.777c-6.04 1.017-10.563 5.583-12.645 8.088-2.906 1.359-4.923 4.301-4.923 7.72v18.012c-1.928.604-3.323 2.84-3.323 5.59 0 3.229 1.919 5.757 4.369 5.757.322 0 .634-.047.934-.132 1.615 7.031 6.373 12.876 12.716 15.961-14.61 2.035-25.898 14.594-25.898 29.756v20.173c0 1.654 1.346 3 3 3h99.893c1.05 0 2.024-.318 2.842-.856.448.298.938.537 1.474.68.446.119.898.179 1.348.179.899 0 1.787-.236 2.587-.699 2.476-1.432 3.326-4.611 1.894-7.085zm-5.127-4.874-4.081 2.379c-.305-.056-.616-.095-.937-.095h-1.021l-1.883-3.258c-.878-1.521-.356-3.474 1.164-4.354.491-.283 1.037-.429 1.589-.429.276 0 .554.036.828.109.822.22 1.509.747 1.935 1.483zm-3.825-7.578c-1.339-.358-2.736-.175-3.935.521-2.475 1.431-3.324 4.609-1.894 7.084l1.305 2.258h-8.263c-1.736 0-3.266.865-4.208 2.178h-16.321c-3.845-6.383-7.954-15.404-6.914-23.549h41.856c.484 3.798-.149 7.783-1.359 11.608-.091-.03-.174-.076-.267-.1zm-12.786 18.233c-1.756 0-3.186-1.429-3.186-3.186s1.429-3.186 3.186-3.186h4.809l.022 6.371h-4.831zm-21.728 0c-.839 0-1.521-.683-1.521-1.521v-1.15c0-.839.682-1.521 1.521-1.521h16.644c-.065.326-.102.663-.102 1.008 0 1.207.431 2.304 1.125 3.186h-17.667zm38.35-33.497v.864c0 .491-.4.891-.891.891h-44.495c-.491 0-.891-.399-.891-.891v-.864c0-.491.4-.891.891-.891h44.495c.491 0 .891.4.891.891zm-17.673-16.962.361-.63c.078-.137.205-.234.357-.275.051-.015.104-.021.155-.021.102 0 .202.026.292.079l8.926 5.111c.282.162.38.523.219.806l-.361.63c-.078.137-.205.234-.357.275-.153.043-.311.021-.448-.057v-.001l-8.926-5.111c-.282-.162-.38-.524-.218-.806zm1.077 3.602 2.61 1.495 2.61 1.495-3.263 7.479h-9.572zm-28.79 10.469c-1.594 0-2.891 1.297-2.891 2.891v.864c0 1.357.943 2.49 2.206 2.8-.991 8.293 2.862 17.253 6.691 23.811-1.437.444-2.491 1.769-2.491 3.35v1.15c0 .547.136 1.059.36 1.521h-11.014v-27.4c0-5.339 3.042-10.155 7.802-12.476.975 1.089 1.861 2.258 2.659 3.489zm-37.596 1.774-2.282-3.955c-.028-.049-.061-.096-.098-.14-.322-.387-.306-.939.078-1.36l5.764-7.104v41.322l-6.265-20.588c-.164-.397-.069-.839.241-1.124.046-.043.089-.09.127-.141l2.181-2.944c1.07-1.069 1.18-2.775.254-3.966zm22.746 3.965 2.193 2.947c.036.049.076.094.12.135.308.287.401.73.237 1.129-.012.029-.022.059-.031.089l-6.233 20.496v-41.323l5.809 7.147c.336.371.352.941.037 1.325-.034.042-.064.086-.091.133l-2.292 3.955c-.922 1.185-.813 2.892.251 3.967zm-17.284-10.252v-7.245l4.237 2.695-2.901 3.115c-.001.001-.002.003-.003.005zm8.821-7.866-3.033 1.932-3.038-1.932c.994.128 2.006.202 3.034.202 1.03 0 2.042-.074 3.037-.202zm-3.035 4.588 2.571 2.761-1.361 3.834h-2.422l-1.36-3.833zm-.95 8.595h1.897l1.154 35.583h-4.205zm2.503-9.867 4.231-2.695v7.245zm-7.339 7.484 1.677-1.801 1.186 3.34-1.181 36.427h-1.682zm8.707 1.54 1.186-3.34 1.676 1.802v37.965h-1.681zm12.997 10.7c.436-1.116.168-2.396-.67-3.234l-2.191-2.944c-.034-.046-.072-.089-.114-.129-.389-.369-.432-.974-.098-1.377.035-.043.067-.088.095-.137l2.294-3.958c.879-1.142.818-2.787-.123-3.824l-6.306-7.762c6.476.618 12.312 3.44 16.752 7.715-5.111 2.754-8.346 8.089-8.346 13.977v27.4h-9.116zm10.388-46.788c0 2.036-1.085 3.757-2.369 3.757-.195 0-.382-.054-.563-.131.15-1.074.234-2.17.234-3.285v-3.429c0-.208-.017-.415-.021-.623.115-.029.232-.045.351-.045 1.283 0 2.368 1.72 2.368 3.756zm-50.246 3.757c-1.284 0-2.369-1.721-2.369-3.757s1.085-3.756 2.369-3.756c.119 0 .236.016.351.045-.004.208-.021.415-.021.623v3.429c0 1.115.083 2.211.234 3.285-.182.077-.368.131-.564.131zm2.33-3.416v-3.429c0-5.425 1.491-10.741 4.311-15.376 1.158-1.902 2.754-3.524 4.641-4.721 2.394 1.48 7.217 2.414 12.657 2.414s10.263-.934 12.657-2.414c1.887 1.196 3.483 2.818 4.641 4.721 2.82 4.635 4.311 9.951 4.311 15.376v3.429c0 11.915-9.693 21.608-21.608 21.608s-21.61-9.693-21.61-21.608zm-12.578 71.174v-20.173c0-7.181 2.714-13.739 7.167-18.707 4.764 2.32 7.809 7.138 7.809 12.479v10.324c0 .553.448 1 1 1s1-.447 1-1v-10.323c0-5.891-3.238-11.228-8.354-13.981 4.445-4.277 10.289-7.108 16.772-7.723l-6.269 7.728c-.992 1.079-1.055 2.728-.161 3.873l2.281 3.954c.028.048.06.095.096.138.336.406.295 1.009-.093 1.372-.044.042-.084.087-.12.135l-2.179 2.941c-.859.848-1.127 2.151-.694 3.195l7.836 25.768h-9.115v-3.514c0-.553-.448-1-1-1s-1 .447-1 1v3.514h-13.976c-.551 0-1-.448-1-1zm96.131 1-.022-6.371h4.785c1.757 0 3.186 1.429 3.186 3.186s-1.429 3.186-3.186 3.186h-4.763zm12.012-.428c-.737.424-1.595.538-2.417.319-.183-.049-.348-.133-.515-.213.547-.822.869-1.805.869-2.864 0-1.661-.799-3.126-2.018-4.076l2.851-1.662 2.394 4.142c.879 1.522.357 3.474-1.164 4.354z"/></g></g></g></g></g></svg>