<svg height="512pt" viewBox="-22 0 512 512" width="512pt" xmlns="http://www.w3.org/2000/svg"><path d="m167.785156 307.058594h25.914063c40.71875 0 74.0625-32.734375 74.359375-73.433594.003906-.300781.003906-.605469.003906-.910156v-81.800782c0-67.734374-54.882812-122.648437-122.582031-122.648437h-9.65625c-67.699219 0-122.582031 54.914063-122.582031 122.648437v81.800782c0 .277344 0 .554687.003906.835937.269531 40.578125 33.445312 73.261719 74.046875 73.433594l25.964843.074219" fill="#ffb03b"/><path d="m222.316406 191.109375v-54.109375c-15.574218 0-30.058594-7.992188-38.359375-21.167969l-9.527343-20.1875c.007812-.183593-.226563-.253906-.324219-.101562-14.371094 22.484375-39.320313 41.457031-65.96875 41.457031h-49.148438v54.109375c0 39 16.632813 71.90625 60.5 82.242187l-4.65625 33.707032h51.644531l-4.65625-33.707032c43.863282-10.332031 60.496094-43.238281 60.496094-82.242187zm0 0" fill="#f5cfb2"/><path d="m174.449219 192.695312c-5.523438 0-10-4.476562-10-10 0-9.054687 7.367187-16.421874 16.425781-16.421874h9.285156c5.523438 0 10 4.476562 10 10 0 5.523437-4.476562 10-10 10h-6.371094c-1.4375 3.753906-5.078124 6.421874-9.339843 6.421874zm10-10v.003907zm0 0"/><path d="m106.855469 192.695312c-4.261719 0-7.898438-2.667968-9.339844-6.421874h-6.371094c-5.523437 0-10-4.476563-10-10 0-5.523438 4.476563-10 10-10h9.285157c9.058593 0 16.425781 7.367187 16.425781 16.421874 0 5.523438-4.476563 10-10 10zm-10-10v.003907zm0 0"/><path d="m140.652344 246.683594c-6.425782 0-12.851563-2.445313-17.742188-7.332032-3.90625-3.90625-3.90625-10.238281-.003906-14.144531 3.90625-3.90625 10.238281-3.90625 14.144531-.003906 1.984375 1.988281 5.21875 1.988281 7.207031 0 3.90625-3.902344 10.234376-3.898437 14.140626.003906 3.902343 3.90625 3.902343 10.238281-.003907 14.144531-4.890625 4.886719-11.316406 7.332032-17.742187 7.332032zm0 0"/><path d="m271.304688 456.484375v45.515625h-261.304688v-165.613281c0-16.195313 13.136719-29.328125 29.34375-29.328125h202.617188c16.207031 0 29.34375 13.128906 29.34375 29.328125v29.402343" fill="#62728c"/><path d="m271.300781 417.929688c-.648437 0-1.308593-.058594-1.949219-.191407-.640624-.128906-1.269531-.316406-1.871093-.566406-.597657-.25-1.179688-.5625-1.726563-.921875-.542968-.371094-1.0625-.78125-1.523437-1.238281-.457031-.472657-.878907-.980469-1.238281-1.53125-.359376-.539063-.671876-1.121094-.921876-1.71875-.25-.613281-.4375-1.230469-.566406-1.871094-.132812-.652344-.203125-1.300781-.203125-1.960937 0-.648438.070313-1.308594.203125-1.949219.128906-.640625.316406-1.269531.566406-1.871094.25-.597656.5625-1.1875.921876-1.730469.359374-.550781.78125-1.058594 1.238281-1.519531.460937-.460937.980469-.878906 1.523437-1.238281.546875-.359375 1.128906-.671875 1.726563-.921875.601562-.25 1.230469-.4375 1.871093-.570313 1.289063-.257812 2.621094-.257812 3.910157 0 .640625.132813 1.261719.320313 1.871093.570313.597657.25 1.179688.5625 1.71875.921875.550782.359375 1.058594.777344 1.53125 1.238281.460938.460937.871094.96875 1.238282 1.519531.359375.542969.671875 1.121094.921875 1.730469.25.601563.4375 1.230469.570312 1.871094.128907.640625.1875 1.300781.1875 1.949219 0 .660156-.058593 1.308593-.1875 1.960937-.132812.640625-.320312 1.257813-.570312 1.871094-.25.597656-.5625 1.179687-.921875 1.71875-.367188.550781-.777344 1.058593-1.238282 1.53125-.472656.457031-.980468.867187-1.53125 1.238281-.539062.359375-1.121093.671875-1.71875.921875-.601562.25-1.230468.4375-1.871093.566406-.648438.132813-1.300781.191407-1.960938.191407zm0 0"/><g fill="#fff"><path d="m63.699219 98.390625c16.519531-12.007813 44.816406-19.925781 76.953125-19.925781 32.136718 0 60.433594 7.917968 76.953125 19.925781 8.910156-6.566406 14.777343-17.734375 14.777343-30.40625 0-20.210937-14.910156-36.59375-33.304687-36.59375-7.117187 0-13.707031 2.460937-19.121094 6.636719-6.710937-16.511719-21.777343-28.027344-39.304687-28.027344-17.523438 0-32.589844 11.515625-39.304688 28.027344-5.414062-4.179688-12.003906-6.636719-19.121094-6.636719-18.394531 0-33.304687 16.382813-33.304687 36.59375 0 12.671875 5.867187 23.839844 14.777344 30.40625zm0 0"/><path d="m138.96875 307.058594h-63.746094c-1.089844 3.304687-1.683594 6.835937-1.683594 10.507812 0 18.523438 15.023438 33.539063 33.558594 33.539063 18.53125 0 33.554688-15.015625 33.554688-33.539063 0-3.671875-.589844-7.203125-1.683594-10.507812zm0 0"/><path d="m142.335938 307.058594c-1.089844 3.304687-1.683594 6.835937-1.683594 10.507812 0 18.523438 15.023437 33.539063 33.558594 33.539063 18.53125 0 33.554687-15.015625 33.554687-33.539063 0-3.671875-.59375-7.203125-1.683594-10.507812zm0 0"/><path d="m63.550781 385.359375h154.207031v116.640625h-154.207031zm0 0"/></g><path d="m310.535156 232.535156c12.238282 0 22.160156 9.917969 22.160156 22.148438v55.875c0 28.632812 23.226563 51.847656 51.875 51.847656 28.648438 0 51.875-23.214844 51.875-51.847656v-55.875c0-12.230469 9.921876-22.148438 22.160157-22.148438zm0 0" fill="#ffdd73"/><path d="m247.710938 297.476562c18.375-15.300781 30.160156-38.21875 30.347656-63.785156l.003906-82.777344c0-34.121093-12.917969-66.527343-36.375-91.269531-3.664062-21.726562-21.375-38.253906-42.609375-38.253906-5.210937 0-10.292969.984375-15.070313 2.894531-9.808593-15.03125-25.902343-24.285156-43.355468-24.285156s-33.546875 9.253906-43.355469 24.285156c-4.777344-1.910156-9.859375-2.898437-15.070313-2.898437-21.234374 0-38.945312 16.527343-42.609374 38.253906-23.457032 24.746094-36.375 57.148437-36.375 91.273437v81.800782l.003906.898437c.167968 25.574219 12.003906 48.53125 30.445312 63.851563-19.027344 2.75-33.691406 19.15625-33.691406 38.921875v165.613281c0 5.523438 4.476562 10 10 10h261.304688c5.523437 0 10-4.476562 10-10v-45.515625c0-5.523437-4.476563-10-10-10-5.523438 0-10 4.476563-10 10v35.515625h-33.546876v-174.941406h14.203126c10.667968 0 19.34375 8.671875 19.34375 19.328125v29.402343c0 5.523438 4.476562 10 10 10 5.523437 0 10-4.476562 10-10v-29.402343c0-19.734375-14.613282-36.117188-33.59375-38.910157zm-39.953126 77.882813h-134.207031v-30.054687c7.996094 9.644531 20.0625 15.800781 33.546875 15.800781s25.558594-6.160157 33.554688-15.808594c7.996094 9.648437 20.070312 15.808594 33.558594 15.808594 13.480468 0 25.550781-6.15625 33.546874-15.800781zm-35.472656-260.832031 2.628906 5.570312c.171876.367188.367188.722656.582032 1.0625 8.386718 13.308594 21.714844 22.203125 36.820312 24.945313v45.003906c0 39.859375-17.761718 64.253906-52.789062 72.507813-5.023438 1.183593-8.320313 5.992187-7.613282 11.101562l3.085938 22.335938h-28.691406l3.085937-22.335938c.707031-5.109375-2.589843-9.917969-7.613281-11.101562-35.03125-8.253907-52.792969-32.648438-52.792969-72.507813v-44.109375h39.148438c26.382812 0 48.882812-15.082031 64.148437-32.472656zm25.472656 202.53125c.003907.167968.007813.339844.007813.507812 0 12.980469-10.570313 23.539063-23.558594 23.539063s-23.554687-10.558594-23.554687-23.539063c0-.167968 0-.339844.003906-.507812zm-114.210937 0h47.101563c.003906.167968.003906.339844.003906.507812 0 12.980469-10.566406 23.539063-23.554688 23.539063-12.988281 0-23.558594-10.558594-23.558594-23.539063 0-.167968.003907-.339844.007813-.507812zm154.914063-229.691406c12.734374 18.601562 19.601562 40.617187 19.601562 63.546874v81.800782l-.003906.839844c-.253906 35.015624-29.125 63.503906-64.359375 63.503906h-18.511719l-2.269531-16.429688c38.398437-12.484375 59.398437-43.941406 59.398437-89.519531v-54.105469c0-5.523437-4.476562-10-10-10-12.019531 0-23.039062-5.980468-29.589844-16.023437l-7.875-16.683594c10.726563 3.050781 20.007813 7.191406 26.875 12.183594 3.527344 2.5625 8.304688 2.546875 11.8125-.039063 6.589844-4.855468 11.699219-11.488281 14.921876-19.074218zm-156.234376-45.976563c4.652344 0 9.148438 1.574219 13.007813 4.554687 2.476563 1.910157 5.703125 2.550782 8.71875 1.738282 3.019531-.8125 5.480469-2.992188 6.65625-5.886719 5.382813-13.242187 17.175781-21.796875 30.042969-21.796875 12.867187 0 24.660156 8.554688 30.042968 21.792969 1.175782 2.898437 3.640626 5.074219 6.65625 5.890625 3.019532.8125 6.242188.167968 8.71875-1.738282 3.859376-2.980468 8.359376-4.554687 13.007813-4.554687 12.851563 0 23.304687 11.929687 23.304687 26.59375 0 6.65625-2.160156 12.933594-5.96875 17.757813-19.003906-10.910157-46.566406-17.277344-75.761718-17.277344-29.195313 0-56.757813 6.367187-75.761719 17.277344-3.808594-4.824219-5.96875-11.101563-5.96875-17.757813 0-14.667969 10.453125-26.59375 23.304687-26.59375zm-58.980468 192.085937-.003906-82.5625c0-22.929687 6.867187-44.945312 19.601562-63.546874 3.226562 7.589843 8.332031 14.21875 14.921875 19.074218 1.765625 1.300782 3.847656 1.953125 5.933594 1.953125 2.0625 0 4.125-.636719 5.878906-1.914062 15.289063-11.113281 42.523437-18.015625 71.074219-18.015625 8.539062 0 16.957031.617187 24.972656 1.78125-14.308594 22.332031-36.863281 36.757812-57.484375 36.757812h-49.152344c-5.523437 0-10 4.476563-10 10v54.109375c0 45.574219 21 77.035157 59.398438 89.515625l-2.265625 16.410156-18.785156-.054687c-35.109376-.148437-63.859376-28.636719-64.089844-63.507813zm-3.246094 102.910157c0-10.65625 8.679688-19.328125 19.34375-19.328125h14.207031v174.941406h-33.550781zm53.550781 155.613281v-96.640625h134.207031v96.640625zm0 0"/><path d="m458.605469 222.535156h-148.070313c-5.519531 0-10 4.480469-10 10 0 5.523438 4.480469 10 10 10 6.707032 0 12.160156 5.453125 12.160156 12.148438v55.875c0 31.210937 23.25 57.09375 53.34375 61.261718v130.179688c0 5.523438 4.476563 10 10 10 5.523438 0 10-4.476562 10-10v-130.660156c28.65625-5.390625 50.40625-30.59375 50.40625-60.78125v-55.875c0-6.699219 5.453126-12.148438 12.160157-12.148438 5.523437 0 10-4.476562 10-10 0-5.519531-4.476563-10-10-10zm-32.160157 32.148438v55.875c0 23.074218-18.785156 41.847656-41.875 41.847656-23.089843 0-41.875-18.773438-41.875-41.847656v-55.875c0-4.292969-.847656-8.398438-2.382812-12.148438h16.421875v20.03125c0 5.523438 4.480469 10 10 10 5.523437 0 10-4.476562 10-10v-20.03125h15.671875v49.863282c0 5.523437 4.476562 10 10 10s10-4.476563 10-10v-49.863282h16.421875c-1.535156 3.75-2.382813 7.855469-2.382813 12.148438zm0 0"/><path d="m179.449219 430.070312h-77.589844c-5.523437 0-10-4.476562-10-10 0-5.523437 4.476563-10 10-10h77.589844c5.523437 0 10 4.476563 10 10 0 5.523438-4.476563 10-10 10zm0 0"/></svg>