<svg id="Capa_1" enable-background="new 0 0 512 512" height="512" viewBox="0 0 512 512" width="512" xmlns="http://www.w3.org/2000/svg"><g><g><path d="m374.5 154.167 27.5-20 27.5 20v29l-27.5 20-27.5-20z" fill="#788dc3"/><g><path d="m429.5 183.167h-145c-24.853 0-45 20.147-45 45v45l117.5 30 117.5-30v-45c0-24.853-20.147-45-45-45z" fill="#90a1cd"/><path d="m284.5 183.167c-24.853 0-45 20.147-45 45v45h70v-45c0-24.853 20.147-45 45-45z" fill="#788dc3"/></g><g><g><path d="m452 86h-100c-12.426 0-22.5 10.074-22.5 22.5v23.167c0 12.426 10.074 22.5 22.5 22.5h100c12.426 0 22.5-10.074 22.5-22.5v-23.167c0-12.426-10.074-22.5-22.5-22.5z" fill="#90a1cd"/></g><path d="m352 154.167h50c-12.426 0-22.5-10.074-22.5-22.5v-23.167c0-12.426 10.074-22.5 22.5-22.5h-50c-12.426 0-22.5 10.074-22.5 22.5v23.167c0 12.426 10.074 22.5 22.5 22.5z" fill="#788dc3"/></g></g><g><g><path d="m54.28 241.021c-4.328 9.932-6.689 20.824-6.689 32.145l80.716 20v-52.145z" fill="#ffcbbe"/><path d="m128.306 241.021v52.145l80.716-20c0-11.41-2.388-22.283-6.69-32.145z" fill="#ffddcf"/></g><g><path d="m202.332 241.021c-5.78-13.257-15.097-24.826-26.894-33.341-6.092-4.399-12.841-7.973-20.01-10.536-8.571-3.064-17.743-4.694-27.122-4.694 0 0 0 0-.001 0v92.716l53.799-12v-.01c0-5.519-.148-11.033-.429-16.54 7.354-4.784 14.399-10.093 20.657-15.595z" fill="#ff8f71"/><path d="m101.169 197.138c-20.261 7.256-37.692 22.79-46.889 43.883 6.252 5.496 13.289 10.8 20.635 15.583-.273 5.38-.417 10.882-.417 16.563l53.808 12v-92.717c-9.519 0-18.65 1.649-27.137 4.688z" fill="#ff6f4d"/></g><path d="m155.095 236.407h-53.582c-12.423 0-19.462-14.238-11.918-24.108l11.575-15.161 27.137-14.586 27.122 14.592 11.584 15.155c7.543 9.871.505 24.108-11.918 24.108z" fill="#eff2f8"/><path d="m128.306 182.552-27.137 14.586c4.765 12.497 14.296 22.404 27.137 29.269 12.84-6.866 22.357-16.767 27.122-29.263h.001z" fill="#ffcbbe"/></g><g><g fill="#ffcbbe"><circle cx="31.554" cy="104.253" r="24.054"/><circle cx="225.058" cy="104.253" r="24.054"/></g><g><path d="m164.877 14.652c-6.52-2.664-13.395-4.638-20.536-5.829-5.216-.87-10.573-1.323-16.036-1.323-53.433 0-96.751 43.317-96.751 96.753 0 44.017 29.398 81.164 69.628 92.891 8.606 2.509 17.707 3.86 27.123 3.86 5.464 0 10.821-.455 16.036-1.326 3.774-.631 7.474-1.48 11.087-2.533 3.223-.94 6.368-2.06 9.443-3.316 35.301-14.425 60.186-49.085 60.186-89.575.001-40.495-24.876-75.177-60.18-89.602z" fill="#ffddcf"/><path d="m104.687 104.253c0-24.227 8.905-46.374 23.619-63.348 9.882-11.398 22.386-20.459 36.571-26.253-6.52-2.664-13.395-4.638-20.536-5.829-5.216-.87-10.573-1.323-16.036-1.323-53.433 0-96.751 43.317-96.751 96.753 0 44.017 29.398 81.164 69.628 92.891 8.606 2.509 17.707 3.86 27.123 3.86 5.464 0 10.821-.455 16.036-1.326 3.774-.631 7.474-1.48 11.087-2.533 3.223-.94 6.368-2.06 9.443-3.316-35.299-14.426-60.184-49.086-60.184-89.576z" fill="#ffcbbe"/></g></g><g><path d="m144.342 8.823c-5.216-.87-10.573-1.323-16.036-1.323-53.433 0-96.751 43.317-96.751 96.753 11.179 0 22.012-1.762 32.205-5.024 28.949-9.264 52.729-30.65 64.547-58.324 15.979 37.418 53.823 63.347 96.752 63.347-.001-47.972-34.914-87.789-80.717-95.429z" fill="#e8b5b1"/><path d="m128.305 7.5c-53.433 0-96.751 43.317-96.751 96.753 11.179 0 22.012-1.762 32.205-5.024 16.085-5.147 30.569-14.041 42.296-25.671 2.088-2.097 4.123-4.249 6.04-6.51 6.62-7.811 12.133-16.602 16.21-26.142 4.386-10.261 7.036-21.445 7.924-33.082-2.613-.212-5.255-.324-7.924-.324z" fill="#d6948c"/></g><g><g><path d="m414.5 504.5h-317c-33.137 0-60-26.863-60-60v-111.333l218.5-30 218.5 30v111.333c0 33.137-26.863 60-60 60z" fill="#64b3fb"/><path d="m474.5 273.167h-437c-16.569 0-30 13.431-30 30 0 16.569 13.431 30 30 30h437c16.569 0 30-13.431 30-30 0-16.569-13.431-30-30-30z" fill="#53a3ec"/></g><g><path d="m179.022 303.167c0-16.568 13.431-30 30-30h-171.522c-16.569 0-30 13.431-30 30s13.431 30 30 30h171.522c-16.569 0-30-13.432-30-30z" fill="#4293dd"/><path d="m209.022 444.5v-111.333h-171.522v111.333c0 33.137 26.863 60 60 60h171.522c-33.137 0-60-26.863-60-60z" fill="#53a3ec"/></g></g><g><path d="m482 266.421v-38.255c0-26.402-19.593-48.304-45-51.956v-14.544h15c16.542 0 30-13.458 30-30v-23.166c0-16.542-13.458-30-30-30h-100c-16.542 0-30 13.458-30 30v23.167c0 16.542 13.458 30 30 30h15v14h-21.786c-4.143 0-7.5 3.358-7.5 7.5s3.357 7.5 7.5 7.5h84.286c20.678 0 37.5 16.822 37.5 37.5v37.5h-220v-37.5c0-20.678 16.822-37.5 37.5-37.5h30.714c4.142 0 7.5-3.358 7.5-7.5s-3.358-7.5-7.5-7.5h-30.714c-28.949 0-52.5 23.551-52.5 52.5v37.5h-15.798c-2.363-28.042-18.106-53.199-42.022-67.815 25.328-12.464 44.893-34.906 53.532-62.168 16.5-1.397 28.9-15.188 28.9-31.431 0-16.245-12.4-30.032-28.899-31.429-13.363-42.173-52.871-72.824-99.407-72.824s-86.044 30.651-99.407 72.823c-16.406 1.391-28.899 15.09-28.899 31.429 0 16.39 12.547 30.048 28.9 31.431 8.639 27.26 28.202 49.702 53.528 62.166-23.361 14.302-39.599 39.156-42.016 67.817h-2.912c-20.678 0-37.5 16.822-37.5 37.5 0 18.11 12.904 33.261 30 36.745v51.492c0 4.142 3.358 7.5 7.5 7.5s7.5-3.358 7.5-7.5v-50.738h422v103.835c0 28.949-23.552 52.5-52.5 52.5h-317c-28.949 0-52.5-23.551-52.5-52.5v-23.096c0-4.142-3.358-7.5-7.5-7.5s-7.5 3.358-7.5 7.5v23.096c0 37.22 30.28 67.5 67.5 67.5h317c37.22 0 67.5-30.28 67.5-67.5v-104.588c17.096-3.484 30-18.635 30-36.745s-12.904-33.262-30-36.746zm-60-90.754h-40v-14h40zm-70-29c-8.271 0-15-6.729-15-15v-23.167c0-8.271 6.729-15 15-15h100c8.271 0 15 6.729 15 15v23.167c0 8.271-6.729 15-15 15zm-120.565-57.699c6.127 2.567 10.178 8.578 10.178 15.285 0 6.699-4.042 12.714-10.178 15.285.736-4.99 1.123-10.093 1.123-15.285v-.001c0-5.192-.387-10.294-1.123-15.284zm-206.258 30.57c-6.128-2.568-10.177-8.581-10.177-15.286 0-6.688 4.031-12.71 10.177-15.284-.736 4.99-1.123 10.093-1.123 15.284s0 0 0 0c0 5.193.387 10.295 1.123 15.286zm175.965 146.129h-11.635c-.04-1.713-.083-3.429-.15-5.155 3.271-2.23 6.438-4.536 9.491-6.903 1.099 3.944 1.877 7.967 2.294 12.058zm-23.661-46.683c6.315 5.738 11.595 12.527 15.582 20.063-4.819 3.94-10.006 7.722-15.479 11.283-2.241 1.458-3.536 3.999-3.399 6.668.148 2.901.255 5.796.324 8.667h-38.703v-21.759h19.289c13.781.001 23.785-12.01 22.386-24.922zm-61.117-11.168c3.92.449 7.903.688 11.942.688 4.036 0 8.017-.239 11.935-.687-3.304 3.724-7.3 7.065-11.935 9.939-4.638-2.875-8.637-6.217-11.942-9.94zm1.593 21.091h-16.444c-6.228 0-9.737-7.111-5.957-12.057l4.418-5.787c4.539 6.846 10.597 12.863 17.983 17.844zm38.671-17.843 4.425 5.789c3.777 4.942.271 12.054-5.958 12.054h-16.44c7.381-4.98 13.435-10.996 17.973-17.843zm-28.322-196.064c46.58 0 84.933 35.869 88.906 81.436-36.123-2.842-67.779-25.155-82.008-58.476-1.18-2.763-3.894-4.555-6.897-4.555s-5.718 1.792-6.897 4.555c-14.405 33.734-46.68 55.653-82.008 58.476 3.972-45.567 42.325-81.436 88.904-81.436zm-88.959 96.47c36.83-2.533 70.169-22.862 88.961-54.127 18.359 30.503 51.394 51.562 88.957 54.133-3.69 45.848-42.177 82.027-88.959 82.027-46.784.001-85.272-36.182-88.959-82.033zm39.774 107.551c-1.374 12.875 8.6 24.886 22.391 24.886h19.294v21.759h-38.714c.068-2.912.167-5.815.313-8.683.136-2.668-1.159-5.208-3.398-6.666-5.463-3.556-10.643-7.333-15.457-11.27 4.005-7.563 9.306-14.325 15.571-20.026zm-21.356 34.589c3.047 2.362 6.207 4.664 9.47 6.889-.064 1.716-.107 3.442-.146 5.167h-11.619c.418-4.088 1.196-8.111 2.295-12.056zm416.735 72.057h-437c-12.407 0-22.5-10.093-22.5-22.5s10.093-22.5 22.5-22.5h437c12.406 0 22.5 10.093 22.5 22.5s-10.094 22.5-22.5 22.5z"/><path d="m86.674 107c-4.142 0-7.5 3.358-7.5 7.5v8c0 4.142 3.358 7.5 7.5 7.5s7.5-3.358 7.5-7.5v-8c0-4.142-3.358-7.5-7.5-7.5z"/><path d="m169.938 130c4.142 0 7.5-3.358 7.5-7.5v-8c0-4.142-3.358-7.5-7.5-7.5s-7.5 3.358-7.5 7.5v8c0 4.142 3.358 7.5 7.5 7.5z"/><path d="m144.937 127.189c2.721-3.123 2.396-7.86-.727-10.582-3.124-2.721-7.861-2.396-10.582.727-1.345 1.543-3.284 2.428-5.322 2.428s-3.977-.885-5.322-2.428c-2.722-3.123-7.459-3.447-10.582-.727-3.123 2.722-3.448 7.459-.727 10.582 4.194 4.813 10.256 7.573 16.63 7.573s12.437-2.76 16.632-7.573z"/><circle cx="158.306" cy="255.667" r="7.5"/></g></g></svg>