<svg id="Layer_1" enable-background="new 0 0 511.972 511.972" height="512" viewBox="0 0 511.972 511.972" width="512" xmlns="http://www.w3.org/2000/svg"><g><g><g><path d="m435.462 504.443h-358.96c-12.64 0-22.56-10.828-21.43-23.406l2.85-31.854 1.55-17.347c2.73-30.545 24.87-55.83 54.8-62.609l27.9-6.319 31.77-7.189 36.85-8.339 92.08.41 94.81 21.446c29.93 6.769 52.08 32.064 54.81 62.609l1.55 17.337 2.85 31.854c1.13 12.578-8.79 23.407-21.43 23.407z" fill="#9ca9b7"/><path d="m456.883 481.037c1.13 12.578-8.79 23.406-21.43 23.406h-30c12.64 0 22.56-10.828 21.43-23.406l-4.4-49.191c-2.73-30.545-12.18-55.03-67.79-72.327l42.98 9.718c29.93 6.769 52.08 32.064 54.81 62.609z" fill="#75818e"/></g><path d="m140.322 462.37v42.073h-63.82c-12.64 0-22.56-10.828-21.43-23.406l2.85-31.854z" fill="#ffd6ae"/><path d="m435.462 504.443h-63.82v-42.073l52.81-8.449 29.59-4.739 2.85 31.854c1.13 12.578-8.79 23.407-21.43 23.407z" fill="#ffd6ae"/><path d="m435.462 504.443h-30.01c12.64 0 22.56-10.828 21.43-23.406l-2.43-27.115 29.59-4.739 2.85 31.854c1.13 12.577-8.79 23.406-21.43 23.406z" fill="#ffb185"/><g><path d="m302.705 347.151.16.65c-2.64 2.27-5.39 4.559-8.25 6.869-10.6 8.619-23.87 13.318-37.54 13.288-13.69.03-26.97-4.679-37.59-13.318-3.02-2.44-5.92-4.859-8.7-7.259 2.46-9.328 3.63-18.937 3.47-28.535-.07-4.619-.44-9.238-1.13-13.828l-2.34-15.667h92.08l-2.38 15.927c-.71 4.729-1.09 9.498-1.14 14.268-.11 9.288 1.01 18.567 3.36 27.605z" fill="#ffd6ae"/><path d="m302.865 289.351-2.38 15.927c-.71 4.729-1.09 9.498-1.14 14.268-1.49 1.25-3.02 2.5-4.58 3.759-10.6 8.628-23.87 13.318-37.54 13.298-13.69.02-26.97-4.679-37.59-13.318-1.84-1.49-3.63-2.969-5.38-4.439-.07-4.619-.44-9.238-1.13-13.828l-2.34-15.667z" fill="#ffb185"/></g></g><g><path d="m403.118 289.052h-12.34c-6.31 0-12.19-2.02-17.09-5.429-8.42-5.849-13.97-15.787-13.97-26.625 0 17.147-13.9 32.054-31.06 32.054h-145.35c-17.15 0-31.06-14.907-31.06-32.054 0 17.147-13.9 32.054-31.06 32.054h-10.53l17.69-166.021c3.5-32.854 19.11-61.749 42.11-82.426 19.61-17.627 44.59-29.285 72.01-32.324 4.74-.54 9.55-.81 14.42-.81 66.09 0 121.54 49.851 128.54 115.56z" fill="#cc753a"/><path d="m385.428 123.031 17.69 166.021h-12.34c-6.31 0-12.19-2.02-17.09-5.429l-17.1-160.592c-6.48-60.859-54.54-108.121-114.12-114.75 4.74-.54 9.55-.81 14.42-.81 66.09 0 121.54 49.852 128.54 115.56z" fill="#c6542c"/><path d="m339.308 162.663-9.032-1.128c-17.805-2.223-33.465-12.845-42.112-28.565l-4.239 6.475c-7.73 11.806-19.634 20.256-33.33 23.66l-1.252.311-74.679-.754c2.242 21.844 2.673 48.998 1.264 63.363-.173 1.976-.252 4.039-.252 6.094 0 19.392 16.488 42.562 48.993 68.856 9.13 7.428 20.551 11.475 32.324 11.453 11.76.024 23.167-4.015 32.288-11.429 32.527-26.314 49.014-49.485 49.014-68.878 0-2.055-.079-4.118-.252-6.144-1.407-14.35-.976-41.485 1.265-63.314z" fill="#ffd6ae"/><g fill="#ffb185"><path d="m174.96 215.494c-13.637 0-24.739-10.965-24.907-24.599-.17-13.873 11.031-25.21 24.907-25.21z"/><path d="m339.01 215.494c13.637 0 24.739-10.965 24.907-24.599.17-13.873-11.031-25.21-24.907-25.21z"/></g></g><path d="m249.352 211.326c0 13.058-10.59 23.636-23.65 23.636-3.9 0-7.58-.95-10.82-2.62-7.62-3.919-12.82-11.858-12.82-21.016s5.2-17.097 12.82-21.016c3.24-1.68 6.92-2.63 10.82-2.63 13.06 0 23.65 10.588 23.65 23.646z" fill="#e6f3ff"/><path d="m249.352 211.326c0 13.058-10.59 23.636-23.65 23.636-3.9 0-7.58-.95-10.82-2.62 7.62-3.919 12.82-11.858 12.82-21.016s-5.2-17.097-12.82-21.016c3.24-1.68 6.92-2.63 10.82-2.63 13.06 0 23.65 10.588 23.65 23.646z" fill="#d6dced"/><path d="m312.224 211.326c0 13.058-10.59 23.636-23.65 23.636-3.9 0-7.58-.95-10.82-2.62-7.62-3.919-12.82-11.858-12.82-21.016s5.2-17.097 12.82-21.016c3.24-1.68 6.92-2.63 10.82-2.63 13.06 0 23.65 10.588 23.65 23.646z" fill="#e6f3ff"/><path d="m312.224 211.326c0 13.058-10.59 23.636-23.65 23.636-3.9 0-7.58-.95-10.82-2.62 7.62-3.919 12.82-11.858 12.82-21.016s-5.2-17.097-12.82-21.016c3.24-1.68 6.92-2.63 10.82-2.63 13.06 0 23.65 10.588 23.65 23.646z" fill="#d6dced"/></g><g><path d="m464.368 480.387-4.401-49.213c-3.034-33.92-27.399-61.761-60.63-69.28l-90.254-20.421c-2.524-11.572-2.923-23.375-1.165-35.143l1.459-9.772h19.283c12.572 0 23.972-6.554 31.06-16.442 7.088 9.889 18.487 16.442 31.06 16.442h12.34c2.128 0 4.154-.903 5.577-2.485s2.106-3.693 1.881-5.81l-17.688-166.008c-7.428-69.697-65.895-122.255-136.002-122.255-36.802 0-71.335 14.411-97.237 40.578-2.914 2.944-2.89 7.692.054 10.606 2.943 2.913 7.692 2.891 10.606-.054 23.064-23.299 53.811-36.13 86.578-36.13 62.418 0 114.473 46.793 121.084 108.844l16.805 157.713h-3.998c-12.771 0-23.56-11.243-23.56-24.552 0-4.143-3.357-7.5-7.5-7.5s-7.5 3.357-7.5 7.5c0 13.309-10.789 24.552-23.56 24.552h-7.291c16.389-17.899 24.427-34.221 24.427-49.423 0-2.329-.094-4.611-.288-6.877-.088-.894-.167-1.844-.24-2.839 14.705-2.915 25.957-15.879 26.147-31.387.108-8.729-3.211-16.956-9.346-23.167-6.137-6.212-14.326-9.634-23.06-9.634-23.011 0-39.3-10.121-43.573-27.074-.73-2.896-3.109-5.084-6.057-5.567-2.942-.487-5.901.826-7.52 3.338l-.259.399c-10.639 16.511-16.498 25.604-45.927 28.674-10.111 1.056-28.631.71-43.512.433-6.36-.118-12.367-.23-17.203-.23-8.732 0-16.921 3.421-23.058 9.634-6.135 6.21-9.455 14.438-9.348 23.166.191 15.512 11.446 28.477 26.154 31.39-.076 1.048-.158 2.051-.251 2.991-.187 2.122-.281 4.393-.281 6.749 0 15.206 8.04 31.53 24.427 49.425h-9.292c-12.771 0-23.559-11.243-23.559-24.552 0-4.143-3.358-7.5-7.5-7.5s-7.5 3.357-7.5 7.5c0 13.309-10.789 24.552-23.56 24.552h-2.19l16.804-157.713c1.8-16.892 6.966-32.886 15.355-47.538 2.058-3.595.813-8.177-2.782-10.235-3.592-2.057-8.176-.812-10.235 2.782-9.427 16.466-15.232 34.433-17.253 53.401l-17.689 166.007c-.225 2.116.458 4.228 1.881 5.81s3.45 2.485 5.577 2.485h10.534c12.572 0 23.971-6.554 31.06-16.442 7.088 9.889 18.487 16.442 31.059 16.442h20.984l1.42 9.512c1.75 11.721 1.366 23.47-1.128 34.99l-91.966 20.828c-33.222 7.523-57.582 35.363-60.615 69.276l-4.403 49.224c-.723 8.086 2.004 16.159 7.484 22.151 5.483 5.995 13.288 9.434 21.414 9.434h87.368c4.142 0 7.5-3.357 7.5-7.5s-3.358-7.5-7.5-7.5h-16.046v-58.584c0-4.143-3.358-7.5-7.5-7.5s-7.5 3.357-7.5 7.5v15.198l-66.807-10.693.93-10.394c2.451-27.404 22.138-49.902 48.988-55.983l92.854-21.029c1.948 1.643 3.947 3.296 5.976 4.939 11.892 9.68 26.877 15.007 42.182 15.006.084-.001.169-.001.255 0 15.312 0 30.28-5.316 42.144-14.965 1.881-1.523 3.718-3.048 5.525-4.567l91.157 20.625c26.856 6.076 46.549 28.575 49.001 55.985l.929 10.383-66.807 10.693v-15.198c0-4.143-3.357-7.5-7.5-7.5s-7.5 3.357-7.5 7.5v58.584h-165.289c-4.142 0-7.5 3.357-7.5 7.5s3.358 7.5 7.5 7.5h236.61c8.126 0 15.932-3.438 21.414-9.435 5.479-5.991 8.207-14.065 7.483-22.15zm-331.544-11.612v28.196h-56.322c-3.984 0-7.658-1.618-10.345-4.557-2.684-2.936-3.967-6.732-3.613-10.692l2.134-23.854zm223.593-277.928c-.092 7.469-4.969 13.823-11.67 16.188-.057-10.069.311-21.628 1.067-32.426 2.063.876 3.958 2.152 5.583 3.797 3.295 3.335 5.078 7.753 5.02 12.441zm-141.421-17.126c8.508 0 16.385-.191 22.234-.801 28.544-2.978 40.297-12.136 49.497-24.416 8.668 13.713 24.38 22.469 44.174 24.34-.525 7.272-.876 14.837-1.047 22.126l-12.033 5.43c-4.387-11.898-15.836-20.405-29.235-20.405-14.591 0-26.865 10.087-30.23 23.654h-2.41c-3.366-13.567-15.64-23.654-30.23-23.654-13.402 0-24.854 8.511-29.239 20.413l-12.36-5.565c-.168-7.109-.508-14.472-1.012-21.566 2.779.042 5.736.097 8.779.153 7.553.14 15.58.291 23.112.291zm89.737 37.427c0 8.907-7.244 16.153-16.147 16.153-8.904 0-16.148-7.246-16.148-16.153s7.244-16.154 16.148-16.154c8.902 0 16.147 7.247 16.147 16.154zm-62.87 0c0 8.907-7.244 16.153-16.148 16.153s-16.148-7.246-16.148-16.153 7.244-16.154 16.148-16.154 16.148 7.247 16.148 16.154zm-84.311-20.33c-.058-4.688 1.726-9.105 5.021-12.441 1.625-1.645 3.519-2.921 5.582-3.797.757 10.789 1.125 22.342 1.069 32.428-6.701-2.364-11.58-8.719-11.672-16.19zm25.84 35.953c.421-4.287.68-9.579.788-15.45l10.799 4.862c2.414 14.792 15.274 26.119 30.735 26.119 14.59 0 26.864-10.087 30.23-23.653h2.41c3.366 13.566 15.64 23.653 30.23 23.653 15.463 0 28.324-11.33 30.736-26.124l10.473-4.726c.108 5.773.365 10.969.778 15.175.149 1.749.225 3.602.225 5.507 0 16.776-15.986 38.576-46.246 63.053-7.734 6.288-17.479 9.748-27.48 9.748-.058 0-.116 0-.172 0-9.988 0-19.75-3.468-27.511-9.782-30.231-24.453-46.21-46.245-46.21-63.021-.001-1.92.074-3.75.215-5.361zm106.502 122.046c-9.211 7.491-20.816 11.613-32.721 11.613-.066 0-.132 0-.198 0-11.893 0-23.518-4.132-32.757-11.652-1.714-1.387-3.402-2.777-5.049-4.159 2.68-12.17 3.306-24.564 1.88-36.953 10.229 7.917 22.892 12.27 35.821 12.269h.23c12.81 0 25.336-4.256 35.486-11.998-1.43 12.435-.792 24.878 1.915 37.093-1.506 1.257-3.045 2.523-4.607 3.787zm155.922 143.598c-2.687 2.938-6.361 4.557-10.345 4.557h-56.322v-28.196l68.147-10.907 2.134 23.855c.352 3.959-.93 7.755-3.614 10.691z"/><path d="m224.192 473.741c1.919 0 3.838-.732 5.303-2.196 2.929-2.929 2.93-7.677.001-10.606l-26.334-26.341 26.334-26.341c2.929-2.93 2.928-7.678-.001-10.606s-7.678-2.929-10.606.001l-31.636 31.644c-2.928 2.929-2.928 7.677 0 10.605l31.636 31.644c1.463 1.464 3.383 2.196 5.303 2.196z"/><path d="m284.475 471.545c1.465 1.464 3.384 2.196 5.303 2.196 1.92 0 3.84-.732 5.304-2.197l31.637-31.644c2.929-2.929 2.929-7.677 0-10.605l-31.637-31.644c-2.929-2.929-7.678-2.93-10.606-.001-2.93 2.929-2.93 7.677-.001 10.606l26.335 26.341-26.335 26.341c-2.93 2.93-2.93 7.678 0 10.607z"/><path d="m250.53 473.743c3.457 0 6.565-2.404 7.324-5.921l13.65-63.287c.874-4.049-1.7-8.039-5.75-8.912-4.048-.875-8.039 1.7-8.913 5.75l-13.651 63.287c-.873 4.049 1.701 8.039 5.75 8.912.535.116 1.067.171 1.59.171z"/><path d="m236.8 271.687h40.372c4.143 0 7.5-3.357 7.5-7.5 0-.004-.001-.008-.001-.012s.001-.008.001-.012c0-4.143-3.357-7.5-7.5-7.5h-40.372c-4.142 0-7.5 3.357-7.5 7.5 0 .004.001.008.001.012s-.001.008-.001.012c0 4.142 3.358 7.5 7.5 7.5z"/></g></svg>