<svg id="flat" height="512" viewBox="0 0 512 512" width="512" xmlns="http://www.w3.org/2000/svg"><path d="m232 248 8.33606-16.67213a77.99657 77.99657 0 0 0 2.65575-63.84835 77.9958 77.9958 0 0 1 -4.39174-15.41255l-10.08754-57.16262a85.81831 85.81831 0 0 0 -84.51246-70.90435h-.00014a85.81831 85.81831 0 0 0 -84.51246 70.90435l-10.08752 57.16258a77.9958 77.9958 0 0 1 -4.39174 15.41255 77.99657 77.99657 0 0 0 2.65575 63.84835l8.33604 16.67217z" fill="#b1712c"/><path d="m208 488v-128l6.53542-9.80312a56.34933 56.34933 0 0 0 6.63627-13.63067l-.001-.00034 42.82931-8.56587-13.09151-58.91178a32 32 0 0 0 -14.278-20.19417l-52.63049-32.89405-10.98751-32.96253h-58.025l-10.98749 32.96253-52.63047 32.894a32 32 0 0 0 -14.278 20.19417l-13.09153 58.91183 42.83208 8.56642-.00334.00109a56.34956 56.34956 0 0 0 6.63584 13.62937l6.53542 9.80312v40l-8 24v64z" fill="#718799"/><path d="m136 224h16v80h-16z" fill="#62798c"/><path d="m184 216-40 32-40-32 10.988-32.963h58.024z" fill="#ffbfa1"/><path d="m160 456h328v32h-328z" fill="#e3a15b"/><path d="m200 112v32.0001a55.99994 55.99994 0 0 1 -55.99994 55.9999h-.00012a55.99994 55.99994 0 0 1 -55.99994-55.99994v-32.00006a83.225 83.225 0 0 0 64.98774-31.23473l7.01226-8.76527a40 40 0 0 1 40 40z" fill="#ffceb6"/><circle cx="120" cy="120" fill="#a36522" r="8"/><circle cx="168" cy="120" fill="#a36522" r="8"/><path d="m136 168h-8v-16h8a8.00917 8.00917 0 0 0 8-8v-8h16v8a24.0275 24.0275 0 0 1 -24 24z" fill="#c78869"/><path d="m160 440-112-16-24-48 7.74193-46.45161 35.08681 7.01912a56.34949 56.34949 0 0 0 6.63585 13.62938l6.53541 9.80311v16l80 24 40-24 40 16v48z" fill="#ffceb6"/><path d="m160 440 112-16h24v32h-136z" fill="#e0edff"/><path d="m328 384h64v48h-64z" fill="#e0edff"/><path d="m360 416a8.00008 8.00008 0 0 1 -8-8v-24a8 8 0 0 1 16 0v24a8.00008 8.00008 0 0 1 -8 8z" fill="#bdd1f2"/><path d="m232 200h256v184h-256z" fill="#548aff"/><path d="m328 432h64v24h-64z" fill="#bdd1f2"/><path d="m264 384v-128a24 24 0 0 1 24-24h144a24 24 0 0 1 24 24v128z" fill="#ffc431"/><g fill="#ffa100"><circle cx="296" cy="264" r="8"/><circle cx="320" cy="264" r="8"/><circle cx="344" cy="264" r="8"/><path d="m288 328h16v16h-16z"/><path d="m328 328h48v16h-48z"/><path d="m288 296h16v16h-16z"/><path d="m328 296h88v16h-88z"/><path d="m392 328h40v16h-40z"/></g></svg>