<?xml version="1.0" encoding="iso-8859-1"?>
<!-- Generator: Adobe Illustrator 21.0.0, SVG Export Plug-In . SVG Version: 6.00 Build 0)  -->
<svg xmlns="http://www.w3.org/2000/svg" xmlns:xlink="http://www.w3.org/1999/xlink" version="1.1" id="Capa_1" x="0px" y="0px" viewBox="0 0 512 512" style="enable-background:new 0 0 512 512;" xml:space="preserve" width="512" height="512">
<g>
	<g>
		<path style="fill:#FFE4C1;" d="M256,219.539c-52.383,0-95-42.617-95-95v-27c0-52.383,42.617-95,95-95c52.383,0,95,42.617,95,95v27    C351,176.922,308.384,219.539,256,219.539z"/>
	</g>
	<path style="fill:#FDD1A3;" d="M256,2.539v217c52.383,0,95-42.617,95-95v-27C351,45.157,308.383,2.54,256,2.539z"/>
	<path style="fill:#00607F;" d="M433.539,363.469c0-105.074-117.559-128.207-122.68-129.483c-3.914-0.977-8.062-0.333-11.5,1.784   L256,262.494l-43.358-26.724c-3.438-2.118-7.583-2.762-11.5-1.784c-5.121,1.276-122.679,24.409-122.679,129.483   c0,7.341,5.277,13.44,12.243,14.736l327.209,0.233c0.209,0.009,0.414,0.031,0.625,0.031s0.416-0.023,0.625-0.031h0.305v-0.015   C427.317,377.939,433.539,371.439,433.539,363.469z"/>
	<path style="fill:#002C3C;" d="M310.859,233.986c-3.914-0.977-8.062-0.333-11.5,1.784L256,262.494v115.828l161.913,0.115   c0.209,0.009,0.414,0.031,0.625,0.031s0.416-0.023,0.625-0.031h0.305v-0.015c7.849-0.483,14.07-6.983,14.07-14.953   C433.539,258.395,315.98,235.262,310.859,233.986z"/>
	<g>
		<path style="fill:#EEE1DC;" d="M485.004,367.772c-8.284,0-15-6.716-15-15v-62.636l-29.343-19.639    c-6.885-4.607-8.73-13.924-4.123-20.809c4.608-6.886,13.923-8.731,20.809-4.123l36,24.094c4.16,2.784,6.657,7.46,6.657,12.466    v70.646C500.004,361.056,493.289,367.772,485.004,367.772z"/>
	</g>
	<path style="fill:#56281B;" d="M256,2.539v75.126c19.68,20.121,60.131,34.202,95,30.772V97.539C351,45.157,308.383,2.54,256,2.539z   "/>
	<path style="fill:#873F2E;" d="M161,103.039c7.388,2.104,15.848,3.499,25.3,3.499c54.482,0,98.807-44.324,98.807-98.807   c0-0.21-0.001-0.416-0.001-0.625C275.93,4.146,266.15,2.539,256,2.539c-52.383,0-95,42.617-95,95V103.039z"/>
	<g>
		<path style="fill:#00607F;" d="M443,509.461H69c-8.284,0-15-6.716-15-15v-63.992c0-8.284,6.716-15,15-15h374    c8.284,0,15,6.716,15,15v63.992C458,502.745,451.285,509.461,443,509.461z"/>
	</g>
	<path style="fill:#002C3C;" d="M443,415.469H256v93.992h187c8.284,0,15-6.716,15-15v-63.992   C458,422.185,451.285,415.469,443,415.469z"/>
	<path style="fill:#BE003B;" d="M303.484,366.488c3.226-3.595,4.524-8.521,3.487-13.239l-42.832-95.771L256,262.494l-8.14-5.017   l-42.834,93.74c-1.004,4.588,0.198,9.382,3.249,12.953l12.07,14.127l72.491,0.052L303.484,366.488z"/>
	<path style="fill:#97002C;" d="M306.971,353.248l-42.832-95.771L256,262.494v115.828l36.838,0.026l10.646-11.861   C306.71,362.893,308.008,357.966,306.971,353.248z"/>
	<g>
		<path style="fill:#FFDA2D;" d="M497,445.469H15c-8.284,0-15-6.716-15-15V363.4c0-8.284,6.716-15,15-15h482c8.284,0,15,6.716,15,15    v67.069C512,438.753,505.285,445.469,497,445.469z"/>
	</g>
	<g>
		<path style="fill:#00AB94;" d="M426.175,277.5c-17.918,0-32.495-14.577-32.495-32.495s14.577-32.495,32.495-32.495    s32.495,14.577,32.495,32.495S444.093,277.5,426.175,277.5z"/>
	</g>
	<path style="fill:#6D3326;" d="M285.107,7.106C275.93,4.146,266.15,2.539,256,2.539v75.158   c17.97-17.902,29.107-42.657,29.107-69.966C285.108,7.521,285.107,7.316,285.107,7.106z"/>
	<path style="fill:#FDBF00;" d="M497,348.4H256v97.069h241c8.284,0,15-6.716,15-15V363.4C512,355.115,505.285,348.4,497,348.4z"/>
</g>















</svg>
