<?xml version="1.0" encoding="iso-8859-1"?>
<!-- Generator: Adobe Illustrator 21.0.0, SVG Export Plug-In . SVG Version: 6.00 Build 0)  -->
<svg xmlns="http://www.w3.org/2000/svg" xmlns:xlink="http://www.w3.org/1999/xlink" version="1.1" id="Capa_1" x="0px" y="0px" viewBox="0 0 513.492 513.492" style="enable-background:new 0 0 513.492 513.492;" xml:space="preserve" width="512" height="512">
<g>
	<path style="fill:#BE003B;" d="M385.192,289.685l-73.125-18.238c-3.917-0.978-8.063-0.334-11.5,1.784l-43.82,27.009l-43.82-27.009   c-3.438-2.118-7.584-2.763-11.5-1.784L128.3,289.685c-32.881,8.201-49.554,33.596-49.554,75.477c0,6.896,4.66,12.691,10.999,14.444   v0.556h330c8.284,0,15-6.716,15-15C434.746,323.28,418.074,297.886,385.192,289.685z"/>
	<path style="fill:#97002C;" d="M385.192,289.685l-73.125-18.238c-3.917-0.978-8.063-0.334-11.5,1.784l-43.82,27.009v79.922h163   c8.284,0,15-6.716,15-15C434.746,323.28,418.074,297.886,385.192,289.685z"/>
	<g>
		<path style="fill:#FFDA2D;" d="M386.746,226h-258c-8.284,0-15-6.716-15-15v-67c0-79.402,64.598-144,144-144    c79.402,0,144,64.598,144,144v67C401.746,219.284,395.03,226,386.746,226z"/>
	</g>
	<path style="fill:#FDBF00;" d="M257.746,0c-0.334,0-0.666,0.01-0.999,0.013V226h129.999c8.284,0,15-6.716,15-15v-67   C401.746,64.598,337.148,0,257.746,0z"/>
	<g>
		<path style="fill:#EEE1DC;" d="M484.242,376.768c-8.284,0-15-6.716-15-15v-62.636l-29.343-19.639    c-6.885-4.607-8.73-13.924-4.123-20.809c4.608-6.886,13.923-8.731,20.809-4.123l36,24.094c4.16,2.784,6.657,7.46,6.657,12.466    v70.646C499.242,370.052,492.526,376.768,484.242,376.768z"/>
	</g>
	<g>
		<path style="fill:#00607F;" d="M443.747,513.492h-374c-8.284,0-15-6.716-15-15V439.5c0-8.284,6.716-15,15-15h374    c8.284,0,15,6.716,15,15v58.992C458.747,506.776,452.031,513.492,443.747,513.492z"/>
	</g>
	<path style="fill:#002C3C;" d="M443.747,424.5h-187v88.992h187c8.284,0,15-6.716,15-15V439.5   C458.747,431.216,452.031,424.5,443.747,424.5z"/>
	<g>
		<path style="fill:#00AB94;" d="M425.412,286.495c-17.918,0-32.495-14.577-32.495-32.495s14.577-32.495,32.495-32.495    s32.495,14.577,32.495,32.495S443.331,286.495,425.412,286.495z"/>
	</g>
	<path style="fill:#FFE4C1;" d="M262.662,96.367c-3.729-2.796-8.884-2.431-12.398,0.631c-18.163,15.826-50.313,22.038-68.577,21.99   c-5.501-0.015-9.942,4.498-9.942,9.999c0,10.335,0,26.493,0,41.843c0,47.729,38.808,87.003,86.529,86.157   c46.167-0.818,83.472-38.628,83.472-84.986v-44.096c0-5.303-4.146-9.662-9.44-9.979C302.974,116.17,279.088,108.684,262.662,96.367   z"/>
	<g>
		<path style="fill:#FFDA2D;" d="M497.747,454.5H15.746c-8.284,0-15-6.716-15-15v-67.069c0-8.284,6.716-15,15-15h482.001    c8.284,0,15,6.716,15,15V439.5C512.747,447.784,506.031,454.5,497.747,454.5z"/>
	</g>
	<path style="fill:#FDD1A3;" d="M332.307,117.926c-29.333-1.756-53.219-9.242-69.645-21.559c-1.761-1.321-3.841-1.928-5.916-1.887   v162.513c0.509,0,1.018,0.002,1.529-0.007c46.167-0.818,83.472-38.628,83.472-84.986v-44.096   C341.747,122.601,337.601,118.242,332.307,117.926z"/>
	<path style="fill:#FDBF00;" d="M497.747,357.431h-241V454.5h241c8.284,0,15-6.716,15-15v-67.069   C512.747,364.146,506.031,357.431,497.747,357.431z"/>
</g>















</svg>
