<svg id="Layer_3" enable-background="new 0 0 64 64" height="512" viewBox="0 0 64 64" width="512" xmlns="http://www.w3.org/2000/svg"><g><g><path d="m37 43-5 5-5-5h-9.172c-1.811 0-3.548.719-4.828 2-1.281 1.281-2 3.017-2 4.828v12.172h42v-12.172c0-1.811-.719-3.548-2-4.828-1.281-1.281-3.017-2-4.828-2z" fill="#4472b2"/></g><g><path d="m47 50h6v6h-6z" fill="#ebf7fe"/></g><g><path d="m47 43.056c-.274-.033-.55-.056-.828-.056 0 0-6.584 0-8.172 0v4h9z" fill="#ebf7fe"/></g><g><path d="m26 43h-8.172c-.279 0-.555.023-.828.056v3.944h9z" fill="#ebf7fe"/></g><g><path d="m32 48 6 5v-10h-1l-5 5-5-5h-1v10z" fill="#ebf7fe"/></g><g><path d="m23 22-4-4v9c0 7.18 5.82 13 13 13s13-5.82 13-13v-9l-4 4z" fill="#efbe9a"/></g><g><path d="m19 27v-3h-1c-1.657 0-3 1.343-3 3s1.343 3 3 3h1.362c-.228-.965-.362-1.966-.362-3z" fill="#efbe9a"/></g><g><path d="m46 24h-1v3c0 1.034-.134 2.035-.362 3h1.362c1.657 0 3-1.343 3-3s-1.343-3-3-3z" fill="#efbe9a"/></g><g><path d="m32 40c-1.772 0-3.46-.357-5-1v4l5 5 5-5s0-2 0-4c-1.54.643-3.228 1-5 1z" fill="#efbe9a"/></g><g><path d="m38.122 22h-15.122l-4-4v9c0 3.901 1.727 7.391 4.447 9.774 6.482-1.164 11.943-6.875 14.675-14.774z" fill="#f5d8c2"/></g><g><path d="m17 16 6 6h18l6-6z" fill="#4472b2"/></g><g><path d="m19.979 18.979c4.069-.081 7.849-1.158 11-2.979h-13.979z" fill="#698ec1"/></g><g><path d="m15 12h34v4h-34z" fill="#223959"/></g><g><path d="m15 12v4h15.979c1.884-1.089 3.527-2.45 4.893-4z" fill="#4e617a"/></g><g><path d="m15 12-2.757-2.757c-.796-.796-1.243-1.875-1.243-3 0-2.344 1.899-4.243 4.243-4.243h33.515c2.343 0 4.242 1.899 4.242 4.243 0 1.125-.447 2.204-1.243 3l-2.757 2.757z" fill="#4472b2"/></g><g><path d="m39.97 2h-24.727c-2.344 0-4.243 1.899-4.243 4.243 0 1.125.447 2.204 1.243 3l2.757 2.757h20.872c2.47-2.802 3.974-6.249 4.098-10z" fill="#698ec1"/></g><g><path d="m28 12v-2l2-2h4l2 2v2z" fill="#ebf7fe"/></g><g><path d="m32 41c-7.72 0-14-6.28-14-14v-9h2v9c0 6.617 5.383 12 12 12s12-5.383 12-12v-9h2v9c0 7.72-6.28 14-14 14z"/></g><g><path d="m53 63h-42c-.552 0-1-.447-1-1v-12.172c0-2.092.814-4.058 2.293-5.535 1.479-1.479 3.445-2.293 5.536-2.293h8.171v-3h2v4c0 .553-.448 1-1 1h-9.171c-1.557 0-3.021.606-4.122 1.707s-1.707 2.564-1.707 4.121v11.172h40v-11.172c0-1.557-.606-3.021-1.707-4.121-1.101-1.101-2.565-1.707-4.122-1.707h-9.171c-.552 0-1-.447-1-1v-4h2v3h8.171c2.091 0 4.057.814 5.536 2.293 1.479 1.478 2.293 3.443 2.293 5.535v12.172c0 .553-.448 1-1 1z"/></g><g><path d="m46 31h-1v-2h1c1.103 0 2-.897 2-2s-.897-2-2-2h-1v-2h1c2.206 0 4 1.794 4 4s-1.794 4-4 4z"/></g><g><path d="m19 31h-1c-2.206 0-4-1.794-4-4s1.794-4 4-4h1v2h-1c-1.103 0-2 .897-2 2s.897 2 2 2h1z"/></g><g><path d="m41 23h-18c-.265 0-.52-.105-.707-.293l-6-6 1.414-1.414 5.707 5.707h17.172l5.707-5.707 1.414 1.414-6 6c-.187.188-.442.293-.707.293z"/></g><g><path d="m49 17h-34c-.552 0-1-.447-1-1v-4c0-.553.448-1 1-1h34c.552 0 1 .447 1 1v4c0 .553-.448 1-1 1zm-33-2h32v-2h-32z"/></g><g><path d="m49.707 12.707-1.414-1.414 2.757-2.758c.613-.612.95-1.426.95-2.293 0-1.788-1.455-3.242-3.243-3.242h-33.514c-1.788 0-3.243 1.454-3.243 3.242 0 .867.337 1.681.949 2.292l2.758 2.759-1.414 1.414-2.757-2.758c-.991-.989-1.536-2.305-1.536-3.707 0-2.89 2.352-5.242 5.243-5.242h33.515c2.89 0 5.242 2.352 5.242 5.242 0 1.401-.545 2.718-1.536 3.708z"/></g><g><path d="m16 43h2v19h-2z"/></g><g><path d="m46 43h2v19h-2z"/></g><g><path d="m32 49c-.256 0-.512-.098-.707-.293l-5-5 1.414-1.414 4.293 4.293 4.293-4.293 1.414 1.414-5 5c-.195.195-.451.293-.707.293z"/></g><g><path d="m26 54c-.144 0-.289-.031-.424-.095-.351-.164-.576-.517-.576-.905v-10h2v7.865l4.36-3.634 1.28 1.537-6 5c-.183.153-.411.232-.64.232z"/></g><g><path d="m38 54c-.229 0-.457-.079-.64-.231l-6-5 1.28-1.537 4.36 3.633v-7.865h2v10c0 .388-.225.741-.576.905-.135.064-.28.095-.424.095z"/></g><g><path d="m31 48h2v14h-2z"/></g><g><path d="m47 49h6v2h-6z"/></g><g><path d="m47 55h6v2h-6z"/></g><g><path d="m17 46h9v2h-9z"/></g><g><path d="m38 46h9v2h-9z"/></g><g><path d="m37 56h7v2h-7z"/></g><g><path d="m37 12h-2v-1.586l-1.414-1.414h-3.172l-1.414 1.414v1.586h-2v-2c0-.266.105-.52.293-.707l2-2c.187-.188.442-.293.707-.293h4c.265 0 .52.105.707.293l2 2c.188.187.293.441.293.707z"/></g></g></svg>