<svg id="Layer_3" enable-background="new 0 0 64 64" height="512" viewBox="0 0 64 64" width="512" xmlns="http://www.w3.org/2000/svg"><g><g><path d="m50.293 28.707c.453-.453.707-1.067.707-1.707s-.254-1.254-.707-1.707l-.586-.586c-.453-.453-.707-1.067-.707-1.707s.254-1.254.707-1.707l.586-.586c.453-.453.707-1.067.707-1.707s-.254-1.254-.707-1.707l-1.293-1.293h-34l-1.293 1.293c-.453.453-.707 1.067-.707 1.707s.254 1.254.707 1.707l.586.586c.453.453.707 1.067.707 1.707s-.254 1.254-.707 1.707l-.586.586c-.453.453-.707 1.067-.707 1.707s.254 1.254.707 1.707l.586.586c.453.453.707 1.067.707 1.707s-.254 1.254-.707 1.707l-.586.586c-.453.453-.707 1.067-.707 1.707s.254 1.254.707 1.707l.586.586c.453.453.707 1.067.707 1.707s-.254 1.254-.707 1.707l-.586.586c-.453.453-.707 1.067-.707 1.707v2c1.281-1.281 3.017-2 4.828-2h9.172v-4c1.54.642 3.228 1 5 1s3.46-.357 5-1v4h9.172c1.811 0 3.548.719 4.828 2v-2c0-.64-.254-1.254-.707-1.707l-.586-.586c-.453-.453-.707-1.067-.707-1.707s.254-1.254.707-1.707l.586-.586c.453-.453.707-1.067.707-1.707s-.254-1.254-.707-1.707l-.586-.586c-.453-.453-.707-1.067-.707-1.707s.254-1.254.707-1.707z" fill="#815643"/></g><g><path d="m23 22-4-4v9c0 7.18 5.82 13 13 13s13-5.82 13-13v-9l-4 4z" fill="#efbe9a"/></g><g><path d="m38.122 22h-15.122l-4-4v9c0 3.901 1.727 7.391 4.447 9.774 6.482-1.164 11.943-6.875 14.675-14.774z" fill="#f5d8c2"/></g><g><path d="m37 43-5 5-5-5h-9.172c-1.811 0-3.548.719-4.828 2-1.281 1.281-2 3.017-2 4.828v12.172h42v-12.172c0-1.811-.719-3.548-2-4.828-1.281-1.281-3.017-2-4.828-2z" fill="#4472b2"/></g><g><path d="m47 50h6v6h-6z" fill="#ebf7fe"/></g><g><path d="m47 43.056c-.274-.033-.55-.056-.828-.056 0 0-6.584 0-8.172 0v4h9z" fill="#ebf7fe"/></g><g><path d="m26 43h-8.172c-.279 0-.555.023-.828.056v3.944h9z" fill="#ebf7fe"/></g><g><path d="m32 48 6 5v-10h-1l-5 5-5-5h-1v10z" fill="#ebf7fe"/></g><g><path d="m32 40c-1.772 0-3.46-.357-5-1v4l5 5 5-5s0-2 0-4c-1.54.643-3.228 1-5 1z" fill="#efbe9a"/></g><g><path d="m17 16 6 6h18l6-6z" fill="#4472b2"/></g><g><path d="m19.979 18.979c4.069-.081 7.849-1.158 11-2.979h-13.979z" fill="#698ec1"/></g><g><path d="m15 12h34v4h-34z" fill="#223959"/></g><g><path d="m15 12v4h15.979c1.884-1.089 3.527-2.45 4.893-4z" fill="#4e617a"/></g><g><path d="m15 12-2.757-2.757c-.796-.796-1.243-1.875-1.243-3 0-2.344 1.899-4.243 4.243-4.243h33.515c2.343 0 4.242 1.899 4.242 4.243 0 1.125-.447 2.204-1.243 3l-2.757 2.757z" fill="#4472b2"/></g><g><path d="m39.97 2h-24.727c-2.344 0-4.243 1.899-4.243 4.243 0 1.125.447 2.204 1.243 3l2.757 2.757h20.872c2.47-2.802 3.974-6.249 4.098-10z" fill="#698ec1"/></g><g><path d="m28 12v-2l2-2h4l2 2v2z" fill="#ebf7fe"/></g><g><path d="m32 41c-7.72 0-14-6.28-14-14v-9h2v9c0 6.617 5.383 12 12 12s12-5.383 12-12v-9h2v9c0 7.72-6.28 14-14 14z"/></g><g><path d="m53 63h-42c-.553 0-1-.447-1-1v-12.172c0-2.061.836-4.078 2.293-5.535s3.475-2.293 5.535-2.293h8.172v-3h2v4c0 .553-.447 1-1 1h-9.172c-1.534 0-3.036.622-4.121 1.707s-1.707 2.587-1.707 4.121v11.172h40v-11.172c0-1.534-.622-3.036-1.707-4.121s-2.587-1.707-4.121-1.707h-9.172c-.553 0-1-.447-1-1v-4h2v3h8.172c2.061 0 4.078.836 5.535 2.293s2.293 3.475 2.293 5.535v12.172c0 .553-.447 1-1 1z"/></g><g><path d="m41 23h-18c-.266 0-.52-.105-.707-.293l-6-6 1.414-1.414 5.707 5.707h17.172l5.707-5.707 1.414 1.414-6 6c-.187.188-.441.293-.707.293z"/></g><g><path d="m49 17h-34c-.553 0-1-.447-1-1v-4c0-.553.447-1 1-1h34c.553 0 1 .447 1 1v4c0 .553-.447 1-1 1zm-33-2h32v-2h-32z"/></g><g><path d="m49.707 12.707-1.414-1.414 2.758-2.758c.612-.612.949-1.427.949-2.293 0-1.788-1.454-3.242-3.242-3.242h-33.516c-1.788 0-3.242 1.454-3.242 3.242 0 .866.337 1.681.949 2.293l2.758 2.758-1.414 1.414-2.758-2.758c-.99-.99-1.535-2.306-1.535-3.707 0-2.89 2.352-5.242 5.242-5.242h33.516c2.89 0 5.242 2.352 5.242 5.242 0 1.4-.545 2.717-1.535 3.707z"/></g><g><path d="m46 43h2v19h-2z"/></g><g><path d="m32 49c-.256 0-.512-.098-.707-.293l-5-5 1.414-1.414 4.293 4.293 4.293-4.293 1.414 1.414-5 5c-.195.195-.451.293-.707.293z"/></g><g><path d="m26 54c-.145 0-.289-.031-.424-.095-.351-.164-.576-.517-.576-.905v-10h2v7.865l4.359-3.634 1.281 1.537-6 5c-.183.153-.411.232-.64.232z"/></g><g><path d="m38 54c-.229 0-.457-.079-.641-.231l-6-5 1.281-1.537 4.36 3.633v-7.865h2v10c0 .388-.225.741-.576.905-.135.064-.28.095-.424.095z"/></g><g><path d="m31 48h2v14h-2z"/></g><g><path d="m17 46h9v2h-9z"/></g><g><path d="m38 46h9v2h-9z"/></g><g><path d="m37 56h7v2h-7z"/></g><g><path d="m37 12h-2v-1.586l-1.414-1.414h-3.172l-1.414 1.414v1.586h-2v-2c0-.266.105-.52.293-.707l2-2c.187-.188.441-.293.707-.293h4c.266 0 .52.105.707.293l2 2c.188.187.293.441.293.707z"/></g><g><path d="m16 43h2v19h-2z"/></g><g><path d="m52 45h-2v-2c0-.378-.147-.732-.414-1l-.586-.586c-.645-.645-1-1.502-1-2.414s.355-1.77 1-2.414l.586-.586c.267-.268.414-.622.414-1s-.147-.732-.414-1l-.586-.586c-.645-.645-1-1.502-1-2.414s.355-1.77 1-2.414l.586-.586c.267-.268.414-.622.414-1s-.147-.732-.414-1l-.586-.586c-.645-.645-1-1.502-1-2.414s.355-1.77 1-2.414l.586-.586c.267-.268.414-.622.414-1s-.147-.732-.414-1l-1.293-1.293 1.414-1.414 1.293 1.293c.645.645 1 1.502 1 2.414s-.355 1.77-1 2.414l-.586.586c-.267.268-.414.622-.414 1s.147.732.414 1l.586.586c.645.645 1 1.502 1 2.414s-.355 1.77-1 2.414l-.586.586c-.267.268-.414.622-.414 1s.147.732.414 1l.586.586c.645.645 1 1.502 1 2.414s-.355 1.77-1 2.414l-.586.586c-.267.268-.414.622-.414 1s.147.732.414 1l.586.586c.645.645 1 1.502 1 2.414z"/></g><g><path d="m14 45h-2v-2c0-.912.355-1.77 1-2.414l.586-.586c.267-.268.414-.622.414-1s-.147-.732-.414-1l-.586-.586c-.645-.645-1-1.502-1-2.414s.355-1.77 1-2.414l.586-.586c.267-.268.414-.622.414-1s-.147-.732-.414-1l-.586-.586c-.645-.645-1-1.502-1-2.414s.355-1.77 1-2.414l.586-.586c.267-.268.414-.622.414-1s-.147-.732-.414-1l-.586-.586c-.645-.645-1-1.502-1-2.414s.355-1.77 1-2.414l1.293-1.293 1.414 1.414-1.293 1.293c-.267.268-.414.622-.414 1s.147.732.414 1l.586.586c.645.645 1 1.502 1 2.414s-.355 1.77-1 2.414l-.586.586c-.267.268-.414.622-.414 1s.147.732.414 1l.586.586c.645.645 1 1.502 1 2.414s-.355 1.77-1 2.414l-.586.586c-.267.268-.414.622-.414 1s.147.732.414 1l.586.586c.645.645 1 1.502 1 2.414s-.355 1.77-1 2.414l-.586.586c-.267.268-.414.622-.414 1z"/></g></g></svg>