<svg height="480pt" viewBox="0 0 480.01333 480" width="480pt" xmlns="http://www.w3.org/2000/svg"><path d="m152.011719 280.007812c-35.34375 0-64 28.652344-64 64v128h384v-128c0-35.347656-28.652344-64-64-64zm0 0" fill="#f8664f"/><path d="m392.011719 408.007812v-24c-13.253907 0-24 10.742188-24 24h-104c-53.019531 0-96-42.980468-96-96v-32h-16c-35.34375 0-64 28.652344-64 64v128h384v-64zm0 0" fill="#cc5144"/><path d="m280.011719 320.007812c-22.089844 0-40-17.910156-40-40v-40h80v40c0 22.089844-17.90625 40-40 40zm0 0" fill="#fcbc04"/><path d="m240.011719 280.007812v1.359376c26.410156 11.511718 56.964843 7.933593 80-9.359376v-32h-80zm0 0" fill="#e59730"/><path d="m280.011719 8.007812c66.277343 0 120 53.726563 120 120v48c0 22.089844-17.90625 40-40 40h-160c-22.089844 0-40-17.910156-40-40v-48c0-66.273437 53.726562-120 120-120zm0 0" fill="#c4f236"/><path d="m224.011719 176.007812v-48c.0625-53.902343 36.054687-101.148437 88-115.519531-10.40625-2.960937-21.175781-4.46875-32-4.480469-66.273438 0-120 53.726563-120 120v48c0 22.089844 17.910156 40 40 40h64c-22.089844 0-40-17.910156-40-40zm0 0" fill="#a1d51c"/><path d="m200.011719 104.007812h160v80c0 44.179688-35.816407 80-80 80-44.179688 0-80-35.820312-80-80zm0 0" fill="#f9e109"/><path d="m232.011719 184.007812v-24c0-17.675781 14.328125-32 32-32h96v-24h-24l-16-24-14.320313 24h-105.679687v80c0 44.179688 35.820312 80 80 80 5.375-.007812 10.734375-.542968 16-1.601562-37.25-7.605469-64.007813-40.378906-64-78.398438zm0 0" fill="#fcbc04"/><path d="m312.011719 136.007812h32c8.839843 0 16 7.164063 16 16v16c0 8.835938-7.160157 16-16 16h-32c-8.835938 0-16-7.164062-16-16v-16c0-8.835937 7.164062-16 16-16zm0 0" fill="#57b7eb"/><path d="m216.011719 136.007812h32c8.839843 0 16 7.164063 16 16v16c0 8.835938-7.160157 16-16 16h-32c-8.835938 0-16-7.164062-16-16v-16c0-8.835937 7.164062-16 16-16zm0 0" fill="#57b7eb"/><path d="m248.011719 184.007812-32-48h32c8.839843 0 16 7.164063 16 16v16c0 8.835938-7.160157 16-16 16zm0 0" fill="#aae1f9"/><path d="m344.011719 184.007812-32-48h32c8.839843 0 16 7.164063 16 16v16c0 8.835938-7.160157 16-16 16zm0 0" fill="#aae1f9"/><path d="m89.855469 338.109375-27.710938 16-52-90.066406c-4.417969-7.652344-1.796875-17.4375 5.855469-21.855469s17.4375-1.796875 21.855469 5.855469zm0 0" fill="#7ab92d"/><path d="m104.011719 394.566406v-4.238281c-.078125-18.351563-4.960938-36.363281-14.160157-52.242187l-27.679687 16c9.179687 15.871093 22.332031 29.078124 38.160156 38.320312zm0 0" fill="#f9e109"/><path d="m37.851562 248.007812c-4.597656-7.238281-14.085937-9.5625-21.507812-5.269531-7.421875 4.289063-10.144531 13.671875-6.171875 21.269531l12 20.800782 27.679687-16zm0 0" fill="#fcbc04"/><path d="m16.0625 242.171875c7.652344-4.421875 17.4375-1.796875 21.855469 5.855469l4 6.925781c-7.652344 4.417969-17.4375 1.796875-21.855469-5.855469zm0 0" fill="#f9e109"/><path d="m36.066406 276.792969 13.855469-8 40 69.28125-13.855469 8zm0 0" fill="#a1d51c"/><path d="m80.011719 352.964844-4-6.878906-13.839844 8c9.179687 15.871093 22.332031 29.078124 38.160156 38.320312l3.679688 2.160156v-4.238281c-.042969-7.507813-.875-14.988281-2.476563-22.320313-8.996094-1.707031-16.828125-7.179687-21.523437-15.042968zm0 0" fill="#fcbc04"/><path d="m216.011719 408.007812-26.558594-9.921874c-23.320313-8.78125-49.511719-5.039063-69.441406 9.921874v32h96zm0 0" fill="#57b7eb"/><path d="m24.011719 408.007812 26.5625-9.921874c23.320312-8.78125 49.511719-5.039063 69.4375 9.921874v32h-96zm0 0" fill="#57b7eb"/><path d="m189.453125 398.085938c-23.320313-8.78125-49.511719-5.039063-69.441406 9.921874v16c19.929687-14.960937 46.121093-18.703124 69.441406-9.921874l26.558594 9.921874v-16zm0 0" fill="#aae1f9"/><path d="m50.574219 398.085938-26.5625 9.921874v16l26.5625-9.921874c23.320312-8.78125 49.511719-5.039063 69.4375 9.921874v-16c-19.925781-14.960937-46.117188-18.703124-69.4375-9.921874zm0 0" fill="#aae1f9"/><path d="m8.011719 56.007812h112v144h-112zm0 0" fill="#aae1f9"/><path d="m32.011719 112.007812v-56h-24v144h112v-24h-24c-35.34375 0-64-28.65625-64-64zm0 0" fill="#57b7eb"/><g fill="#39519d"><path d="m336.011719 160.007812c0 4.417969-3.582031 8-8 8s-8-3.582031-8-8c0-4.417968 3.582031-8 8-8s8 3.582032 8 8zm0 0"/><path d="m240.011719 160.007812c0 4.417969-3.582031 8-8 8s-8-3.582031-8-8c0-4.417968 3.582031-8 8-8s8 3.582032 8 8zm0 0"/><path d="m392.011719 384.007812c-4.417969 0-8 3.582032-8 8v80c0 4.417969 3.582031 8 8 8s8-3.582031 8-8v-80c0-4.417968-3.582031-8-8-8zm0 0"/><path d="m408.011719 272.007812h-80v-14.320312c12.84375-8.425781 23.289062-20.027344 30.320312-33.679688h1.679688c26.511719 0 48-21.492187 48-48v-48c0-70.695312-57.304688-127.9999995-128-127.9999995-70.691407 0-128 57.3046875-128 127.9999995v48c0 26.507813 21.492187 48 48 48h1.679687c7.035156 13.652344 17.480469 25.253907 30.320313 33.679688v14.320312h-80c-18.953125-.015624-37.136719 7.492188-50.558594 20.878907-2.578125 1.855469-3.8125 5.058593-3.148437 8.164062.664062 3.105469 3.097656 5.523438 6.207031 6.164063s6.304687-.617188 8.140625-3.207032c10.511718-10.296874 24.648437-16.046874 39.359375-16h80.722656c4.023437 22.964844 23.964844 39.714844 47.277344 39.714844 23.316406 0 43.257812-16.75 47.28125-39.714844h80.71875c30.929687 0 56 25.070313 56 56v128c0 4.417969 3.582031 8 8 8s8-3.582031 8-8v-128c0-39.765624-32.234375-72-72-72zm-240-96v-48c0-61.855468 50.144531-112 112-112 61.859375 0 112 50.144532 112 112v48c-.0625 15.800782-11.648438 29.1875-27.277344 31.519532 2.148437-7.65625 3.253906-15.570313 3.277344-23.519532v-80c0-4.417968-3.582031-8-8-8h-19.679688l-13.679687-20.402343c-1.484375-2.210938-3.976563-3.535157-6.640625-3.535157-2.664063 0-5.152344 1.324219-6.636719 3.535157l-13.683594 20.402343h-43.679687c-4.417969 0-8 3.582032-8 8 0 4.417969 3.582031 8 8 8h48c2.679687-.015624 5.167969-1.367187 6.640625-3.601562l9.359375-14 9.363281 14c1.46875 2.234375 3.960938 3.585938 6.636719 3.601562h16v17.4375c-2.5625-.929687-5.269531-1.417968-8-1.4375h-24c-4.417969 0-8 3.582032-8 8 0 4.417969 3.582031 8 8 8h24c4.417969 0 8 3.582032 8 8v16c0 4.417969-3.582031 8-8 8h-32c-4.417969 0-8-3.582031-8-8v-16c0-4.417968-3.582031-8-8-8s-8 3.582032-8 8h-16c0-13.257812-10.742188-24-24-24h-32c-2.726563.019532-5.433594.507813-8 1.4375v-17.4375h16c4.417969 0 8-3.582031 8-8 0-4.417968-3.582031-8-8-8h-24c-4.417969 0-8 3.582032-8 8v80c.027343 7.949219 1.128906 15.863282 3.28125 23.519532-15.628907-2.332032-27.214844-15.71875-27.28125-31.519532zm40-24c0-4.417968 3.582031-8 8-8h32c4.417969 0 8 3.582032 8 8v16c0 4.417969-3.582031 8-8 8h-32c-4.417969 0-8-3.582031-8-8zm0 38.640626c2.570312.902343 5.277343 1.363281 8 1.359374h32c13.257812 0 24-10.746093 24-24h16c0 13.253907 10.746093 24 24 24h32c2.726562.003907 5.429687-.457031 8-1.359374-3.496094 36.972656-34.539063 65.21875-71.679688 65.21875-37.136719 0-68.179687-28.246094-71.679687-65.21875zm72 121.359374c-17.671875 0-32-14.328124-32-32v-14.082031c20.566406 8.105469 43.4375 8.105469 64 0v14.082031c0 17.671876-14.324219 32-32 32zm0 0"/><path d="m232.011719 432.007812h-104v-19.839843c17.332031-11.542969 39.167969-14.015625 58.640625-6.640625l26.5625 10c4.152344 1.546875 8.773437-.566406 10.320312-4.71875 1.542969-4.15625-.570312-8.777344-4.722656-10.320313l-26.800781-9.921875c-23.898438-8.976562-50.648438-6.003906-72 8-2.585938-1.65625-5.253907-3.179687-8-4.558594v-3.679687c-.128907-19.667969-5.367188-38.964844-15.199219-56l-52-90.320313c-6.625-11.488281-21.3125-15.429687-32.800781-8.800781-11.484375 6.628907-15.425781 21.3125-8.796875 32.800781l12 20.800782 40 69.277344c5.992187 10.210937 13.550781 19.417968 22.398437 27.28125-10.105469-.152344-20.148437 1.613281-29.601562 5.199218l-26.796875 9.921875c-3.136719 1.171875-5.210938 4.171875-5.203125 7.519531v24h-8c-4.417969 0-8.0000002 3.582032-8.0000002 8 0 4.417969 3.5820312 8 8.0000002 8h224c4.417969 0 8-3.582031 8-8 0-4.417968-3.582031-8-8-8zm-145.359375-82.800781c4.53125 9.566407 7.476562 19.808594 8.722656 30.320313-8.539062-6.304688-15.976562-13.984375-22-22.71875zm-21.597656-6.082031-32-55.117188 13.917968-8 32 55.4375zm-45.042969-94.078125c1.847656-1.070313 4.039062-1.355469 6.097656-.800781 2.058594.554687 3.808594 1.910156 4.863281 3.761718l8 13.839844-13.917968 8-8-13.839844c-1.070313-1.84375-1.359376-4.039062-.800782-6.097656.554688-2.058594 1.90625-3.808594 3.757813-4.863281zm12 164.480469 21.363281-8c19.472656-7.375 41.304688-4.902344 58.636719 6.640625v19.839843h-80zm0 0"/><path d="m8.011719 208.007812h112c4.417969 0 8-3.582031 8-8v-24c0-4.417968-3.582031-8-8-8s-8 3.582032-8 8v16h-96v-128h96v80c0 4.417969 3.582031 8 8 8s8-3.582031 8-8v-88c0-4.417968-3.582031-8-8-8h-112c-4.417969 0-8.0000002 3.582032-8.0000002 8v144c0 4.417969 3.5820312 8 8.0000002 8zm0 0"/><path d="m88.011719 120.007812h-48c-4.417969 0-8 3.582032-8 8 0 4.417969 3.582031 8 8 8h48c4.417969 0 8-3.582031 8-8 0-4.417968-3.582031-8-8-8zm0 0"/><path d="m88.011719 152.007812h-48c-4.417969 0-8 3.582032-8 8 0 4.417969 3.582031 8 8 8h48c4.417969 0 8-3.582031 8-8 0-4.417968-3.582031-8-8-8zm0 0"/><path d="m88.011719 88.007812h-32c-4.417969 0-8 3.582032-8 8 0 4.417969 3.582031 8 8 8h32c4.417969 0 8-3.582031 8-8 0-4.417968-3.582031-8-8-8zm0 0"/><path d="m56.011719 32.007812h56c4.417969 0 8-3.582031 8-8 0-4.417968-3.582031-8-8-8h-56c-4.417969 0-8 3.582032-8 8 0 4.417969 3.582031 8 8 8zm0 0"/></g></svg>