<svg id="Layer_1_1_" enable-background="new 0 0 64 64" height="512" viewBox="0 0 64 64" width="512" xmlns="http://www.w3.org/2000/svg"><path d="m33 37 5 2 1 22h-36l1-22 5-2z" fill="#47648f"/><path d="m24 61c2.209 0 4-1.791 4-4s-1.791-4-4-4h-1v-2c0-1.105-.895-2-2-2s-2 .895-2 2v2h-9l-6.813 3.893-.187 4.107z" fill="#fee6d5"/><path d="m43 37.606c0-1.126-.563-2.178-1.5-2.803s-1.5-1.677-1.5-2.803v-6h-4v6c0 1.126-.563 2.178-1.5 2.803s-1.5 1.677-1.5 2.803v2.394h10z" fill="#572e19"/><path d="m52 40v21l3-2 3 2v-21l-1.5 1-1.5 1z" fill="#7a5324"/><path d="m55 42 1.5-1 3.92-7.84c.359-.717.305-1.572-.139-2.239-.7-1.051-2.131-1.313-3.159-.579-3.371 2.408-6.152 5.547-8.135 9.184l-.26.474h3.273z" fill="#fca947"/><path d="m31 40h21v21h-21z" fill="#90622a"/><path d="m46 55 1-5h-11l1 5z" fill="#f35142"/><path d="m18 41-.111.111 3.111 4.889 3.111-4.889-.111-.111.111.111 3.889-6.111-2-2.716c-1.006.555-2.094.99-3.25 1.279-1.149.287-2.351.287-3.5 0-1.156-.289-2.244-.724-3.25-1.279l-2 2.716 3.889 6.111z" fill="#fee6d5"/><path d="m19.25 33.563c1.149.287 2.351.287 3.5 0 1.156-.289 2.244-.724 3.25-1.279 3.208-1.768 5.566-4.774 6.524-8.308l-6.524-5.976c-2.47 2.648-5.762 4.386-9.342 4.931l-7.167 1.093c.967 3.512 3.316 6.499 6.509 8.259 1.006.555 2.094.991 3.25 1.28z" fill="#fee6d5"/><path d="m30 47 3-10-5-2-3.889 6.111z" fill="#47648f"/><path d="m30 18h-4l6.524 5.976c.308-1.135.476-2.322.476-3.541v-5.435c0 1.657-1.343 3-3 3z" fill="#904c2a"/><path d="m12 18h14 4c1.657 0 3-1.343 3-3l-3.95-.987c-5.286-1.321-10.815-1.321-16.101 0l-3.949.987c0 1.657 1.343 3 3 3z" fill="#47648f"/><path d="m17.889 41.111-3.889-6.111-5 2 3 10z" fill="#47648f"/><path d="m26 18h-14c-1.657 0-3-1.343-3-3v5.435c0 1.237.174 2.44.491 3.59l7.167-1.093c3.58-.546 6.872-2.284 9.342-4.932z" fill="#904c2a"/><path d="m29.05 14.013 3.95.987c0-6-5.373-12-12-12s-12 6-12 12l3.95-.987c5.285-1.322 10.815-1.322 16.1 0z" fill="#47648f"/><path d="m27.492 34.31-1.492-2.026c-1.006.555-2.094.99-3.25 1.279-1.149.287-2.351.287-3.5 0-1.156-.289-2.244-.724-3.25-1.279l-1.492 2.026c.476.352.968.685 1.492.974 1.006.555 2.094.99 3.25 1.279 1.149.287 2.351.287 3.5 0 1.156-.289 2.244-.724 3.25-1.279.524-.289 1.016-.622 1.492-.974z" fill="#e6d0c0"/><path d="m32.727 12.655-1.664-.416c-6.607-1.652-13.519-1.652-20.126 0l-1.664.416c-.176.773-.273 1.559-.273 2.345l3.95-.987c5.286-1.321 10.815-1.321 16.101 0l3.949.987c0-.786-.097-1.572-.273-2.345z" fill="#3a4c63"/><path d="m12 47 3.847-2.308c.697-.418 1.578-.373 2.229.115l2.924 2.193 2.924-2.193c.651-.488 1.532-.533 2.229-.115l3.847 2.308-6-6-3 5-3.111-4.889z" fill="#3a4c63"/><path d="m24 59h-20.909l-.091 2h21c2.209 0 4-1.791 4-4 0-.347-.058-.679-.141-1-.447 1.722-1.997 3-3.859 3z" fill="#e6d0c0"/><g fill="#c78538"><path d="m54 33 2 3c.581-.581.672-1.492.216-2.177l-1.202-1.803c-.358.313-.707.637-1.048.968z"/><path d="m53 34h-.023c-.321.346-.633.7-.936 1.061l1.959 2.939c.581-.581.672-1.492.216-2.177z"/><path d="m60.281 30.921c-.111-.166-.245-.305-.388-.431-.034.23-.093.457-.2.671l-3.92 7.839-1.5 1-3-2h-1.383c-.316.499-.62 1.005-.903 1.525l-.26.475h3.273l3 2 1.5-1 3.92-7.84c.359-.717.305-1.572-.139-2.239z"/></g><path d="m41.5 34.803c-.937-.625-1.5-1.677-1.5-2.803v-6h-2v6c0 1.126.563 2.178 1.5 2.803s1.5 1.677 1.5 2.803v2.394h2v-2.394c0-1.127-.563-2.179-1.5-2.803z" fill="#472615"/><path d="m31 58h21v3h-21z" fill="#7a5324"/><path d="m56.503 30.811.015-.025.347-2.841c.081-.564-.209-1.117-.719-1.372l-.459-.229c-.425-.213-.932-.181-1.327.083l-1.873 1.249c-.311.207-.694.273-1.056.183l-2.242-.56c-.671-.168-1.359.21-1.578.866l-.193.58c-.231.694-.981 1.069-1.675.838-.857-.288-1.743.351-1.743 1.255v2.162 7h4.727l.259-.475c1.859-3.408 4.427-6.372 7.517-8.714z" fill="#78af4f"/><path d="m8.629 36.071-5 2c-.364.146-.61.491-.628.883l-1 22c-.013.273.087.539.276.736.189.198.45.31.723.31h21c2.757 0 5-2.243 5-5s-2.243-5-5-5v-1c0-1.654-1.346-3-3-3s-3 1.346-3 3v1h-7v-2h-2v2.42l-4.731 2.704.701-15.435 3.387-1.354 2.686 8.953c.102.337.372.597.714.683.08.019.162.029.243.029.262 0 .518-.103.707-.293l5.007-5.007 2.442 3.837c.184.288.502.463.844.463s.66-.175.844-.463l2.442-3.837 5.007 5.007c.189.19.445.293.707.293v13c0 .552.447 1 1 1h21c.206 0 .386-.077.545-.183l.01.015 2.445-1.63 2.445 1.63c.167.112.361.168.555.168.162 0 .324-.039.472-.118.325-.174.528-.513.528-.882v-21c0-.342-.18-.652-.464-.835l2.779-5.558c.518-1.036.44-2.278-.202-3.241-.49-.735-1.238-1.228-2.107-1.388-.427-.077-.853-.068-1.261.02l.112-.912c.141-.992-.366-1.959-1.262-2.407l-.459-.229c-.743-.371-1.636-.316-2.329.145l-1.873 1.249c-.076.05-.169.066-.259.045l-2.241-.561c-1.171-.292-2.388.375-2.769 1.52l-.193.58c-.058.17-.242.259-.411.205-.707-.236-1.489-.117-2.095.32-.606.435-.966 1.14-.966 1.885v3.997c-.269-.327-.583-.622-.945-.864-.66-.44-1.055-1.177-1.055-1.971v-6c0-.552-.447-1-1-1h-4c-.553 0-1 .448-1 1v6c0 .794-.395 1.531-1.055 1.971-.658.439-1.167 1.041-1.501 1.73l-3.807-1.523-1.178-1.6c4-2.628 6.542-7.137 6.542-12.143v-5.435c0-7.411-5.589-13-13-13-7.898 0-13.001 5.103-13.001 13v5.435c0 5.005 2.541 9.515 6.542 12.143l-1.178 1.6zm1.637 17.929h8.734c.553 0 1-.448 1-1v-2c0-.551.448-1 1-1s1 .449 1 1v2c0 .552.447 1 1 1h1c1.654 0 3 1.346 3 3s-1.346 3-3 3h-19.953l.114-2.512zm2.211-8.891-2.256-7.52 3.381-1.353 3.013 4.735zm38.523 14.891h-19v-19h19zm6-.869-1.445-.963c-.336-.224-.773-.224-1.109 0l-1.446.964v-17.264l1.445.964c.336.224.773.224 1.109 0l1.446-.963zm1.644-28.185c.332.061.617.249.805.53.245.367.275.841.077 1.237l-3.801 7.603-.725.482-2.445-1.63-.01.015c-.159-.106-.339-.183-.545-.183h-1.55c1.854-3.065 4.34-5.763 7.252-7.844.276-.197.612-.27.942-.21zm-13.644-.108c0-.145.084-.227.135-.264s.157-.091.292-.044c1.218.406 2.535-.254 2.94-1.47l.194-.581c.052-.159.22-.254.387-.212l2.241.561c.637.161 1.31.041 1.853-.321l1.873-1.249c.096-.066.222-.072.325-.02l.459.229c.125.063.195.198.174.356l-.298 2.437c-3.032 2.371-5.591 5.367-7.439 8.74h-2.136l4.8-6.4-1.6-1.2-4.2 5.6zm-9.945 4.797c1.217-.812 1.945-2.171 1.945-3.635v-5h2v5c0 1.464.728 2.823 1.945 3.635.66.44 1.055 1.177 1.055 1.971v1.394h-8v-1.395c0-.793.395-1.53 1.055-1.97zm-3.699 3.365h-.356c-.553 0-1 .448-1 1v3.519l-.477 1.589-4.138-4.137 3.013-4.735 3.381 1.353zm-21.356-18.565v-1.991c.591.344 1.268.556 2 .556h11.411c-2.008 1.536-4.39 2.56-6.903 2.943l-6.256.954c-.16-.8-.252-1.622-.252-2.462zm2-3.435c-.839 0-1.557-.521-1.853-1.256l3.044-.761c5.109-1.277 10.51-1.276 15.617 0l3.044.761c-.295.735-1.013 1.256-1.852 1.256zm18 2c.732 0 1.409-.212 2-.556v1.991c0 .542-.045 1.075-.113 1.602l-3.315-3.037zm-9-15c5.83 0 10.328 4.087 10.931 9.702l-2.638-.66c-5.426-1.356-11.16-1.356-16.586 0l-2.656.664c.574-7.126 5.925-9.706 10.949-9.706zm-10.197 20.836 4.855-.74c-.383.21-.658.757-.658 1.404 0 .828.448 1.5 1 1.5s1-.672 1-1.5c0-.755-.373-1.373-.856-1.478l.665-.101c3.459-.527 6.698-2.125 9.226-4.533l5.353 4.903c-1.301 4.032-4.59 7.229-8.879 8.302-.986.246-2.029.246-3.016 0-4.095-1.024-7.277-3.984-8.69-7.757zm8.205 9.697c.651.163 1.322.244 1.992.244s1.341-.082 1.992-.244c.947-.237 1.846-.572 2.702-.977l1.094 1.486-3.521 5.533-2.267 3.563-2.268-3.563-3.521-5.533 1.094-1.486c.856.404 1.756.74 2.703.977z"/><ellipse cx="26" cy="25.5" rx="1" ry="1.5"/><path d="m43.895 45.553-1.789.895 1.276 2.552h-3.764l1.276-2.553-1.789-.895-1.723 3.448h-3.382v2h1.18l.839 4.196c.094.468.504.804.981.804h9c.477 0 .887-.336.98-.804l.84-4.196h1.18v-2h-3.382zm1.286 8.447h-7.361l-.6-3h8.561z"/></svg>