<svg id="Capa_1" enable-background="new 0 0 512 512" height="512" viewBox="0 0 512 512" width="512" xmlns="http://www.w3.org/2000/svg"><g><circle cx="256" cy="256" fill="#9cd6f4" r="256"/><path d="m511.617 269.956-185.328-185.328-168.455 170.793 35.185 35.194-47.474 136.757 83.18 83.181c8.963.949 18.061 1.447 27.275 1.447 136.702 0 248.369-107.15 255.617-242.044z" fill="#7fa6fb"/><g><path d="m188.949 168.953-30.446 28.045c-8.235 7.586-12.958 18.355-12.958 29.547 0 22.147 18.018 40.165 40.165 40.165h25.383z" fill="#5a5f64"/><path d="m353.496 196.998-30.445-28.045-13.606 14.771-8.538 82.987h25.383c22.147 0 40.165-18.018 40.165-40.165 0-11.192-4.723-21.962-12.959-29.548z" fill="#4b5055"/><path d="m326.289 176.339v40.165l-70.289 8.702-70.289-8.702v-40.165l70.289-10.042z" fill="#f6dfb9"/><path d="m326.289 176.339v40.165l-70.289 8.702v-58.909z" fill="#eebda9"/><path d="m326.289 216.504c0 38.76-31.53 70.289-70.289 70.289s-70.289-31.53-70.289-70.289z" fill="#f1f6ff"/><path d="m326.289 216.504c0 38.76-31.53 70.289-70.289 70.289v-70.289z" fill="#dfe5f2"/><path d="m185.711 84.628h140.579v91.711h-140.579z" fill="#f1f6ff"/><path d="m256 84.628h70.289v91.711h-70.289z" fill="#dfe5f2"/><path d="m276.083 124.793v20.083h-10.042v10.711h-20.082v-10.711h-10.042v-20.083h10.042v-9.372h20.082v9.372z" fill="#e27a4e"/><path d="m276.083 124.793v20.083h-10.042v10.711h-10.041v-40.166h10.041v9.372z" fill="#dc455b"/><path d="m366.455 357.083v70.289h-220.91v-70.289c0-38.76 31.53-70.289 70.289-70.289l40.166 44.255 40.165-44.255c38.76-.001 70.29 31.529 70.29 70.289z" fill="#f1f6ff"/><path d="m366.455 357.083v70.289h-110.455v-96.323l40.165-44.255c38.76-.001 70.29 31.529 70.29 70.289z" fill="#dfe5f2"/><path d="m296.165 286.793v30.124c0 11.092-8.99 20.083-20.083 20.083h-40.165c-11.092 0-20.083-8.991-20.083-20.083v-30.124z" fill="#f6dfb9"/><path d="m296.165 286.793v30.124c0 11.092-8.99 20.083-20.083 20.083h-20.082v-50.207z" fill="#eebda9"/><g><path d="m286.124 367.124h40.165v20.083h-40.165z" fill="#4b5055"/></g></g></g></svg>