<svg id="Layer_1" enable-background="new 0 0 512 512" height="512" viewBox="0 0 512 512" width="512" xmlns="http://www.w3.org/2000/svg"><g><g><g><g><g><path d="m200 16c-61.856 0-112 50.144-112 112v192h112v-32h64c26.51 0 48-21.49 48-48v-112c0-61.856-50.144-112-112-112z" fill="#fab991"/></g></g></g></g><g><g><g><g><path d="m200 288h-80c-17.673 0-32 14.327-32 32h112z" fill="#f0915a"/></g></g></g></g><g><g><g><g><path d="m280 240h-32c0 8.837 7.163 16 16 16 8.836 0 16-7.163 16-16z" fill="#463c4b"/></g></g></g></g><g><g><g><g><path d="m232 16h-48c-61.856 0-112 50.144-112 112v68.292c-4.708-2.725-10.169-4.292-16-4.292-17.673 0-32 14.327-32 32s14.327 32 32 32c5.831 0 11.292-1.567 16-4.292v4.292c0 8.837 7.163 16 16 16h48c17.673 0 32-14.327 32-32v-88h32v-16h112c8.837 0 16-7.163 16-16v-8c0-53.019-42.981-96-96-96z" fill="#463c4b"/></g></g></g></g><g><g><g><g><path d="m264 320h-176c-26.51 0-48 21.49-48 48v128h272v-128c0-26.51-21.49-48-48-48z" fill="#a5c3dc"/></g></g></g></g><g><g><g><g><path d="m88 320c-26.51 0-48 21.49-48 48v128h96v-128c0-26.51-21.49-48-48-48z" fill="#d7e6f0"/></g></g></g></g><g><g><g><g><path d="m152 320c26.51 0 48 21.49 48 48v128h48v-128c0-26.51-21.49-48-48-48z" fill="#faa019"/></g></g></g></g><path d="m483.313 388.686c-6.248-6.249-16.379-6.248-22.627 0l-38.627 38.627c-3.022 3.022-7.041 4.687-11.314 4.687h-2.745-40c-4.418 0-8 3.582-8 8v40h32c0-8.837 7.163-16 16-16h2.745c12.82 0 24.874-4.993 33.941-14.059l38.627-38.627c6.249-6.249 6.249-16.379 0-22.628z" fill="#f0915a"/><g><g><g><g><path d="m396 392h-36c-17.673 0-32 14.327-32 32v56h32v-40c0-4.418 3.582-8 8-8h28c11.046 0 20-8.954 20-20 0-11.046-8.954-20-20-20z" fill="#fab991"/></g></g></g></g><g><g><g><g><path d="m400 496h-80v-8c0-4.418 3.582-8 8-8h64c4.418 0 8 3.582 8 8z" fill="#aac3d7"/></g></g></g></g><g><g><g><g><path d="m304 192h-112c-4.418 0-8-3.582-8-8v-32h128v32c0 4.418-3.582 8-8 8z" fill="#5ad7ff"/></g></g></g></g><g><g><g><g><path d="m304 192h-96c-4.418 0-8-3.582-8-8v-32h112v32c0 4.418-3.582 8-8 8z" fill="#23aae6"/></g></g></g></g><g><g><g><g><circle cx="234.667" cy="168" fill="#058cc8" r="10.667"/></g></g></g></g><g><g><g><g><circle cx="282.667" cy="168" fill="#058cc8" r="10.667"/></g></g></g></g><g><g><g><g><path d="m168 136v32h-16v-16c0-8.837 7.163-16 16-16z" fill="#d7e6f0"/></g></g></g></g><g><g><g><g><path d="m200 136h112v16h-112z" fill="#a5c3dc"/></g></g></g></g><g><g><g><g><path d="m168 136h32v16h-32z" fill="#d7e6f0"/></g></g></g></g><g><g><g><g><path d="m168 152v80c-22.091 0-40-17.909-40-40s17.908-40 40-40z" fill="#f0915a"/></g></g></g></g><g><g><g><g><path d="m274.667 224c-8.837 0-16-7.163-16-16v-34.667c17.673 0 32 14.327 32 32v2.667c0 8.837-7.164 16-16 16z" fill="#f0915a"/></g></g></g></g><g><g><g><g><g><path d="m376 192h64v96h-64z" fill="#23aae6"/></g></g></g></g><g><g><g><g><path d="m440 192h-64c-4.418 0-8-3.582-8-8 0-4.418 3.582-8 8-8h64c4.418 0 8 3.582 8 8 0 4.418-3.582 8-8 8z" fill="#5ad7ff"/></g></g></g></g></g><g><g><g><g><path d="m408 288v-72c0-4.418-3.582-8-8-8h-24v80z" fill="#5ad7ff"/></g></g></g></g><g><g><g><g><path d="m384 208h8v80h-8z" fill="#a5ffff"/></g></g></g></g><g><g><g><g><g><g><path d="m376 288v48c0 17.673 14.327 32 32 32 17.673 0 32-14.327 32-32v-48z" fill="#faa019"/></g></g></g></g></g><g><g><g><g><path d="m376 288v48c0 8.837 7.163 16 16 16s16-7.163 16-16v-48z" fill="#ffd205"/></g></g></g></g><g><g><g><g><path d="m384 288v44c0 2.209 1.791 4 4 4s4-1.791 4-4v-44z" fill="#ffff50"/></g></g></g></g></g><g><g><g><g><circle cx="432" cy="152" fill="#faa019" r="8"/></g></g></g></g><g><g><g><g><circle cx="392" cy="112" fill="#faa019" r="16"/></g></g></g></g><g><g><g><g><circle cx="388" cy="108" fill="#ffd205" r="4"/></g></g></g></g></g></svg>