<svg id="Layer_1" enable-background="new 0 0 512 512" height="512" viewBox="0 0 512 512" width="512" xmlns="http://www.w3.org/2000/svg"><g><g><g><g><g><path d="m208 24h-32c-53.019 0-96 42.981-96 96v192h112v-32h64c26.51 0 48-21.49 48-48v-112c0-53.019-42.981-96-96-96z" fill="#fab991"/></g></g></g></g><g><g><g><g><path d="m176 104h-96c-8.837 0-16 7.163-16 16v112c0 17.673 14.327 32 32 32h32c17.673 0 32-14.327 32-32v-40c17.673 0 32-14.327 32-32v-40c0-8.837-7.163-16-16-16z" fill="#463c4b"/></g></g></g></g><g><g><g><g><path d="m296 184h-112c-4.418 0-8-3.582-8-8v-32h128v32c0 4.418-3.582 8-8 8z" fill="#5ad7ff"/></g></g></g></g><g><g><g><g><path d="m296 184h-96c-4.418 0-8-3.582-8-8v-32h112v32c0 4.418-3.582 8-8 8z" fill="#23aae6"/></g></g></g></g><g><g><g><g><path d="m256 312h-176c-26.51 0-48 21.49-48 48v128h272v-128c0-26.51-21.49-48-48-48z" fill="#a5c3dc"/></g></g></g></g><g><g><g><g><path d="m80 312c-26.51 0-48 21.49-48 48v128h96v-128c0-26.51-21.49-48-48-48z" fill="#d7e6f0"/></g></g></g></g><g><g><g><g><path d="m192 280h-80c-17.673 0-32 14.327-32 32h112z" fill="#f0915a"/></g></g></g></g><g><g><g><g><circle cx="226.667" cy="160" fill="#058cc8" r="10.667"/></g></g></g></g><g><g><g><g><circle cx="274.667" cy="160" fill="#058cc8" r="10.667"/></g></g></g></g><g><g><g><g><path d="m266.667 216c-8.837 0-16-7.163-16-16v-34.667c17.673 0 32 14.327 32 32v2.667c0 8.837-7.164 16-16 16z" fill="#f0915a"/></g></g></g></g><g><g><g><g><path d="m160 128v32h-16v-16c0-8.837 7.163-16 16-16z" fill="#555a6e"/></g></g></g></g><g><g><g><g><path d="m160 144v80c-22.091 0-40-17.909-40-40s17.909-40 40-40z" fill="#f0915a"/></g></g></g></g><g><g><g><g><path d="m144 312c26.51 0 48 21.49 48 48v128h48v-128c0-26.51-21.49-48-48-48z" fill="#faa019"/></g></g></g></g><g><g><g><g><path d="m280 232h-32c0 8.837 7.163 16 16 16 8.837 0 16-7.163 16-16z" fill="#463c4b"/></g></g></g></g><path d="m475.314 380.686c-6.248-6.249-16.379-6.249-22.627 0l-38.628 38.628c-3.021 3.022-7.04 4.686-11.313 4.686h-2.746-40c-4.418 0-8 3.582-8 8v40h32c0-8.837 7.163-16 16-16h2.745c12.822 0 24.875-4.993 33.941-14.059l38.627-38.627c6.249-6.249 6.249-16.379.001-22.628z" fill="#f0915a"/><g><g><g><g><path d="m388 384h-36c-17.673 0-32 14.327-32 32v56h32v-40c0-4.418 3.582-8 8-8h28c11.046 0 20-8.954 20-20 0-11.046-8.954-20-20-20z" fill="#fab991"/></g></g></g></g><g><g><g><g><path d="m392 488h-80v-8c0-4.418 3.582-8 8-8h64c4.418 0 8 3.582 8 8z" fill="#aac3d7"/></g></g></g></g><g><g><g><g><path d="m192 128h112v16h-112z" fill="#463c4b"/></g></g></g></g><g><g><g><g><path d="m160 128h32v16h-32z" fill="#555a6e"/></g></g></g></g><g><g><g><g><g><path d="m368 184h64v96h-64z" fill="#23aae6"/></g></g></g></g><g><g><g><g><path d="m432 184h-64c-4.418 0-8-3.582-8-8 0-4.418 3.582-8 8-8h64c4.418 0 8 3.582 8 8 0 4.418-3.582 8-8 8z" fill="#5ad7ff"/></g></g></g></g></g><g><g><g><g><path d="m400 280v-72c0-4.418-3.582-8-8-8h-24v80z" fill="#5ad7ff"/></g></g></g></g><g><g><g><g><path d="m376 200h8v80h-8z" fill="#a5ffff"/></g></g></g></g><g><g><g><g><g><g><path d="m368 280v48c0 17.673 14.327 32 32 32 17.673 0 32-14.327 32-32v-48z" fill="#faa019"/></g></g></g></g></g><g><g><g><g><path d="m368 280v48c0 8.837 7.163 16 16 16s16-7.163 16-16v-48z" fill="#ffd205"/></g></g></g></g><g><g><g><g><path d="m376 280v44c0 2.209 1.791 4 4 4s4-1.791 4-4v-44z" fill="#ffff50"/></g></g></g></g></g><g><g><g><g><circle cx="424" cy="144" fill="#faa019" r="8"/></g></g></g></g><g><g><g><g><circle cx="384" cy="104" fill="#faa019" r="16"/></g></g></g></g><g><g><g><g><circle cx="380" cy="100" fill="#ffd205" r="4"/></g></g></g></g></g></svg>